<svg xmlns="http://www.w3.org/2000/svg" viewBox="0 0 420 270"><defs><style>.cls-1{fill:#fff;}.cls-2{fill:#00071c;}.cls-3{fill:#d3d2d8;}.cls-4{fill:#f4b8c6;}.cls-5{fill:#f6c744;}.cls-6{fill:#20423b;}.cls-7{fill:#23443e;}.cls-8{fill:#eb4733;}.cls-9{fill:#2349ea;}.cls-10{fill:#d8b9fa;}</style></defs><g id="Layer_10" data-name="Layer 10"><rect class="cls-1" x="-18" y="-12" width="461" height="320"/></g><g id="frame"><rect class="cls-2" x="13.09" y="18.64" width="395.5" height="246"/><path class="cls-3" d="M13.09,18.64V11.36s-1-6.22,6-6.22h380s9-1.1,9.5,8.45v5.05Z"/><circle class="cls-4" cx="23.59" cy="11.64" r="3.5"/><circle class="cls-5" cx="34.59" cy="11.64" r="3.5"/><circle class="cls-6" cx="45.59" cy="11.64" r="3.5"/></g><g id="code"><path class="cls-1" d="M371.94,248.21l4.69-7.94a1.19,1.19,0,0,1,1.44-.41.82.82,0,0,1,.51,1.17L373.89,249a1.19,1.19,0,0,1-1.44.42.82.82,0,0,1-.51-1.18Z"/><path class="cls-1" d="M368.65,249.05a1.13,1.13,0,0,1-.7-.23l-4.66-3.75a.69.69,0,0,1,0-1.12h0l4.64-3.73a1.22,1.22,0,0,1,1.45,0h0a.73.73,0,0,1,0,1.18l-3.45,2.81a.42.42,0,0,0,0,.67l3.43,2.79a.71.71,0,0,1,0,1.15,1.15,1.15,0,0,1-.71.24Z"/><path class="cls-1" d="M383.35,249.05a.92.92,0,0,1-1-.81.73.73,0,0,1,.29-.58l3.43-2.79a.42.42,0,0,0,0-.67l-3.45-2.81a.73.73,0,0,1,0-1.18h0a1.22,1.22,0,0,1,1.45,0l4.64,3.73a.69.69,0,0,1,0,1.12h0l-4.66,3.75A1.13,1.13,0,0,1,383.35,249.05Z"/><path class="cls-1" d="M42.17,49.5a1.12,1.12,0,0,1-.7-.24l-4.66-3.75a.69.69,0,0,1,0-1.12h0l4.64-3.74a1.2,1.2,0,0,1,1.45,0h0a.74.74,0,0,1,0,1.18l-3.45,2.81a.4.4,0,0,0,0,.66l3.43,2.79a.72.72,0,0,1,0,1.16,1.17,1.17,0,0,1-.71.24Z"/><path class="cls-1" d="M49.87,49.5a.93.93,0,0,1-1-.82.76.76,0,0,1,.29-.58l3.43-2.79a.41.41,0,0,0,0-.66l-3.45-2.81a.73.73,0,0,1,0-1.18h0a1.2,1.2,0,0,1,1.45,0l4.64,3.74a.7.7,0,0,1,0,1.12h0l-4.66,3.75A1.14,1.14,0,0,1,49.87,49.5Z"/><path class="cls-7" d="M342.46,233.08h-63a3.54,3.54,0,0,1,0-7.08h63a3.54,3.54,0,1,1,0,7.08Z"/><path class="cls-5" d="M353,248H338a3.55,3.55,0,0,1,0-7h15a3.55,3.55,0,0,1,0,7Z"/><path class="cls-8" d="M326.68,241h-9.77s-3.16.5-2.79,3.5c0,0-.54,3,3.42,3.5h9.56a3.21,3.21,0,0,0,2.58-3.49A3.76,3.76,0,0,0,326.68,241Z"/><path class="cls-5" d="M303.82,247.5H282.26c-2.35,0-4.26-1.57-4.26-3.5s1.91-3.5,4.26-3.5h21.56c2.36,0,4.27,1.57,4.27,3.5s-1.91,3.5-4.26,3.5Z"/><path class="cls-9" d="M267.29,240.5H258.5A3.09,3.09,0,0,0,256,244s-.48,3,3.08,3.5h8.61A3.11,3.11,0,0,0,270,244,3.59,3.59,0,0,0,267.29,240.5Z"/><path class="cls-7" d="M246.29,240.5H237.5A3.09,3.09,0,0,0,235,244s-.48,3,3.08,3.5h8.61A3.11,3.11,0,0,0,249,244,3.59,3.59,0,0,0,246.29,240.5Z"/><path class="cls-10" d="M227.35,248H179.68c-1.48,0-2.68-1.59-2.68-3.54s1.2-3.54,2.68-3.54h47.67c1.48,0,2.68,1.58,2.68,3.54s-1.19,3.54-2.67,3.54Z"/><path class="cls-8" d="M167.68,248H126.37c-1.28,0-2.32-1.58-2.32-3.54s1-3.53,2.32-3.54h41.31c1.28,0,2.32,1.59,2.32,3.54s-1,3.54-2.32,3.54Z"/><path class="cls-4" d="M75.78,248.1H36.38c-1.23,0-2.22-1.58-2.22-3.54s1-3.53,2.22-3.54h39.4C77,241,78,242.61,78,244.56s-1,3.54-2.21,3.54Z"/><path class="cls-8" d="M115.07,232.24h-52c-1.61,0-2.92-1.58-2.92-3.54s1.31-3.53,2.92-3.54h52c1.62,0,2.93,1.59,2.93,3.54s-1.31,3.54-2.92,3.54Z"/><path class="cls-5" d="M115,247.5H89.51c-2.79,0-5-1.57-5-3.5s2.26-3.5,5-3.5H115c2.78,0,5,1.57,5,3.5s-2.25,3.5-5,3.5Z"/><path class="cls-7" d="M167.64,232.8H126.33c-1.28,0-2.32-1.58-2.32-3.54s1-3.54,2.32-3.54h41.31c1.28,0,2.32,1.59,2.32,3.54s-1,3.54-2.32,3.54Z"/><path class="cls-8" d="M189.3,225.5h-8.8A3.09,3.09,0,0,0,178,229s-.49,3,3.08,3.5h8.6A3.12,3.12,0,0,0,192,229,3.6,3.6,0,0,0,189.3,225.5Z"/><path class="cls-9" d="M209.3,225.5h-8.8A3.09,3.09,0,0,0,198,229s-.49,3,3.08,3.5h8.6A3.12,3.12,0,0,0,212,229,3.6,3.6,0,0,0,209.3,225.5Z"/><path class="cls-4" d="M267.82,232.8H220.15c-1.48,0-2.68-1.58-2.68-3.54s1.2-3.54,2.68-3.54h47.67c1.48,0,2.68,1.59,2.68,3.54s-1.2,3.54-2.68,3.54Z"/><path class="cls-9" d="M368,232.5H353a3.55,3.55,0,0,1,0-7H368a3.55,3.55,0,0,1,0,7Z"/><path class="cls-8" d="M386.83,225.5H378a3.09,3.09,0,0,0-2.52,3.5s-.48,3,3.08,3.5h8.61a3.11,3.11,0,0,0,2.32-3.49A3.59,3.59,0,0,0,386.83,225.5Z"/><path class="cls-9" d="M280.55,212.5h-8.79a3.09,3.09,0,0,0-2.51,3.5s-.49,3,3.07,3.5h8.61a3.11,3.11,0,0,0,2.32-3.49A3.59,3.59,0,0,0,280.55,212.5Z"/><path class="cls-8" d="M300.55,212.5h-8.79a3.09,3.09,0,0,0-2.51,3.5s-.49,3,3.07,3.5h8.61a3.11,3.11,0,0,0,2.32-3.49A3.59,3.59,0,0,0,300.55,212.5Z"/><path class="cls-10" d="M337,219.5H315.46c-2.36,0-4.27-1.57-4.27-3.5s1.91-3.5,4.27-3.5H337c2.35,0,4.26,1.57,4.27,3.5s-1.91,3.5-4.27,3.5Z"/><path class="cls-7" d="M384,219.5h-30.2c-3.3,0-6-1.57-6-3.5s2.68-3.5,6-3.5H384c3.3,0,6,1.57,6,3.5s-2.67,3.5-6,3.5Z"/><path class="cls-7" d="M261.91,219.66H214.24c-1.48,0-2.68-1.58-2.68-3.54s1.2-3.54,2.68-3.54h47.67c1.48,0,2.68,1.59,2.68,3.54s-1.2,3.54-2.68,3.54Z"/><path class="cls-8" d="M201.67,212.5h-8.8a3.09,3.09,0,0,0-2.51,3.5s-.48,3,3.08,3.5h8.61a3.12,3.12,0,0,0,2.32-3.49A3.59,3.59,0,0,0,201.67,212.5Z"/><path class="cls-9" d="M180.56,219.27H124.17a3.56,3.56,0,0,1,0-7.08h56.39a3.56,3.56,0,0,1,0,7.08Z"/><path class="cls-7" d="M111.38,212.5H100.22S96.6,213,97,216c0,0-.62,3,3.9,3.5h10.92s3.16-.48,3-3.49S111.38,212.5,111.38,212.5Z"/><path class="cls-8" d="M280.88,181.14h-8.79a3.09,3.09,0,0,0-2.52,3.5s-.48,3,3.08,3.5h8.61a3.12,3.12,0,0,0,2.32-3.49A3.59,3.59,0,0,0,280.88,181.14Z"/><path class="cls-4" d="M300.88,181.14h-8.79a3.09,3.09,0,0,0-2.52,3.5s-.48,3,3.08,3.5h8.61a3.12,3.12,0,0,0,2.32-3.49A3.59,3.59,0,0,0,300.88,181.14Z"/><path class="cls-7" d="M336.85,188.14H312.76c-2.63,0-4.76-1.57-4.76-3.5s2.13-3.5,4.76-3.5h24.09c2.63,0,4.76,1.56,4.76,3.5s-2.13,3.5-4.76,3.5Z"/><path class="cls-9" d="M384.35,188.14h-30.2c-3.3,0-6-1.57-6-3.5s2.68-3.5,6-3.5h30.2c3.3,0,6,1.56,6,3.5s-2.67,3.5-6,3.5Z"/><path class="cls-5" d="M262.24,188.3H214.57c-1.48,0-2.68-1.58-2.68-3.54s1.2-3.54,2.68-3.54h47.67c1.48,0,2.68,1.59,2.68,3.54s-1.2,3.54-2.68,3.54Z"/><path class="cls-9" d="M202,181.14h-8.8a3.09,3.09,0,0,0-2.51,3.5s-.49,3,3.08,3.5h8.6a3.12,3.12,0,0,0,2.33-3.49A3.59,3.59,0,0,0,202,181.14Z"/><path class="cls-8" d="M180.88,187.91H124.5a3.56,3.56,0,0,1,0-7.08h56.38a3.56,3.56,0,0,1,0,7.08Z"/><path class="cls-4" d="M386,203.5H364.39c-2.36,0-4.27-1.57-4.27-3.5s1.91-3.5,4.27-3.5H386c2.35,0,4.26,1.57,4.27,3.5s-1.91,3.5-4.27,3.5Z"/><path class="cls-8" d="M354.38,203.83H313.31c-1.28,0-2.31-1.59-2.31-3.55s1-3.53,2.31-3.53h41.07c1.27,0,2.31,1.58,2.31,3.53s-1,3.54-2.31,3.55Z"/><path class="cls-5" d="M302,203.83H254.33c-1.48,0-2.68-1.59-2.68-3.55s1.2-3.53,2.68-3.53H302c1.49,0,2.69,1.58,2.69,3.53s-1.2,3.54-2.68,3.55Z"/><path class="cls-4" d="M243.48,196.79h-8.79a3.09,3.09,0,0,0-2.51,3.5s-.49,3,3.07,3.5h8.61a3.12,3.12,0,0,0,2.32-3.5A3.59,3.59,0,0,0,243.48,196.79Z"/><path class="cls-10" d="M222.37,196.5h-8.8a3.09,3.09,0,0,0-2.51,3.5s-.49,3,3.08,3.5h8.6a3.12,3.12,0,0,0,2.33-3.49A3.6,3.6,0,0,0,222.37,196.5Z"/><path class="cls-5" d="M198.83,203.5H177.27c-2.36,0-4.26-1.57-4.26-3.5s1.91-3.5,4.26-3.5h21.56c2.36,0,4.27,1.57,4.27,3.5s-1.91,3.5-4.27,3.5Z"/><path class="cls-8" d="M163.37,196.5h-8.8a3.09,3.09,0,0,0-2.51,3.5s-.49,3,3.08,3.5h8.6a3.12,3.12,0,0,0,2.33-3.49A3.6,3.6,0,0,0,163.37,196.5Z"/><path class="cls-4" d="M144.71,203.17H103.4c-1.28,0-2.32-1.58-2.32-3.54s1-3.53,2.32-3.54h41.31c1.28,0,2.32,1.59,2.32,3.54s-1,3.54-2.32,3.54Z"/><path class="cls-4" d="M232.21,172.5H208c-2.64,0-4.78-1.57-4.78-3.5s2.14-3.5,4.78-3.5h24.17c2.65,0,4.79,1.57,4.79,3.5s-2.14,3.5-4.78,3.5Z"/><path class="cls-8" d="M250.85,165.5h-7s-2.26.5-2,3.5c0,0-.38,3,2.44,3.5h6.82s2-.48,1.84-3.49S250.85,165.5,250.85,165.5Z"/><path class="cls-10" d="M194.2,165.5h-8.79a3.09,3.09,0,0,0-2.51,3.5s-.49,3,3.07,3.5h8.61A3.11,3.11,0,0,0,196.9,169,3.59,3.59,0,0,0,194.2,165.5Z"/><path class="cls-7" d="M173,172.5H148.8c-2.64,0-4.78-1.57-4.78-3.5s2.14-3.5,4.78-3.5H173c2.64,0,4.79,1.57,4.79,3.5s-2.14,3.5-4.78,3.5Z"/><path class="cls-9" d="M280.29,172.5H261.53a3.51,3.51,0,1,1,0-7h18.76a3.51,3.51,0,1,1,0,7Z"/><path class="cls-4" d="M354.6,172.57H294.23a3.54,3.54,0,0,1,0-7.08H354.6a3.54,3.54,0,0,1,0,7.08Z"/><path class="cls-8" d="M385.83,172.5H365.94a3.52,3.52,0,1,1,0-7h19.89a3.52,3.52,0,1,1,0,7Z"/><path class="cls-9" d="M387,157.5H372.81c-1.55,0-2.81-1.57-2.81-3.5s1.26-3.5,2.81-3.5H387c1.55,0,2.81,1.57,2.81,3.5s-1.26,3.5-2.81,3.5Z"/><path class="cls-5" d="M361.62,150.5h-8.79a3.1,3.1,0,0,0-2.52,3.5s-.48,3,3.08,3.5H362a3.11,3.11,0,0,0,2.32-3.49A3.59,3.59,0,0,0,361.62,150.5Z"/><path class="cls-10" d="M296.65,156.9H227.86a3.55,3.55,0,1,1,0-7.08h68.79a3.55,3.55,0,1,1,0,7.08Z"/><path class="cls-9" d="M213.77,157.5H192.26c-2.36,0-4.26-1.57-4.26-3.5s1.91-3.5,4.26-3.5h21.51c2.35,0,4.26,1.57,4.26,3.5s-1.91,3.5-4.26,3.5Z"/><path class="cls-8" d="M179.45,157.5H159.87a3.52,3.52,0,1,1,0-7h19.58a3.52,3.52,0,1,1,0,7Z"/><path class="cls-8" d="M211.16,141.5h-19.4a3.52,3.52,0,1,1,0-7h19.4a3.52,3.52,0,1,1,0,7Z"/><path class="cls-5" d="M248.45,141.5h-23c-2.51,0-4.55-1.57-4.55-3.5s2-3.5,4.55-3.5h23c2.51,0,4.55,1.57,4.55,3.5s-2,3.5-4.55,3.5Z"/><path class="cls-4" d="M303.5,141.92H259c-1.38,0-2.51-1.59-2.5-3.54s1.12-3.54,2.5-3.54H303.5c1.38,0,2.5,1.58,2.5,3.54s-1.12,3.54-2.5,3.54Z"/><path class="cls-7" d="M346,141.5H320.53c-2.78,0-5-1.57-5-3.5s2.25-3.5,5-3.5H346c2.78,0,5,1.57,5,3.5s-2.25,3.5-5,3.5Z"/><path class="cls-9" d="M385.27,141.5H361.41c-2.61,0-4.72-1.57-4.72-3.5s2.11-3.5,4.72-3.5h23.86c2.61,0,4.73,1.57,4.73,3.5s-2.11,3.5-4.72,3.5Z"/><path class="cls-9" d="M332,126.5H308.09c-2.6,0-4.72-1.57-4.72-3.5s2.12-3.5,4.72-3.5H332c2.61,0,4.72,1.57,4.73,3.5s-2.12,3.5-4.72,3.5Z"/><path class="cls-10" d="M245.44,126.13H199.93c-1.41,0-2.56-1.59-2.56-3.54s1.15-3.54,2.56-3.54h45.51c1.41,0,2.56,1.58,2.56,3.54s-1.14,3.54-2.56,3.54Z"/><path class="cls-8" d="M296.12,126.2H255.05c-1.27,0-2.31-1.59-2.31-3.54s1-3.54,2.31-3.54h41.07c1.28,0,2.31,1.58,2.31,3.54s-1,3.54-2.31,3.54Z"/><path class="cls-7" d="M300.45,110.24H237.36a3.54,3.54,0,0,1,0-7.08h63.09a3.54,3.54,0,1,1,0,7.08Z"/><path class="cls-5" d="M368.81,110.9H312.12a3.56,3.56,0,0,1,0-7.08h56.69a3.56,3.56,0,0,1,0,7.08Z"/><path class="cls-10" d="M386.53,103.5h-8a3,3,0,0,0-2.29,3.5,3.07,3.07,0,0,0,2.81,3.5h7.86S389.14,110,389,107A3.49,3.49,0,0,0,386.53,103.5Z"/><path class="cls-4" d="M386.66,125.9H344.38c-1.32,0-2.38-1.59-2.38-3.55s1.06-3.53,2.38-3.53h42.28c1.31,0,2.37,1.58,2.38,3.53s-1.07,3.54-2.38,3.55Z"/><path class="cls-8" d="M264.53,94.5H247a3.5,3.5,0,0,1,0-7h17.51a3.5,3.5,0,0,1,0,7Z"/><path class="cls-9" d="M300.61,94.5H278.47c-2.42,0-4.38-1.57-4.38-3.5s2-3.5,4.38-3.5h22.14C303,87.5,305,89.07,305,91s-2,3.5-4.38,3.5Z"/><path class="cls-8" d="M339.52,157.5H311.83c-3,0-5.48-1.57-5.48-3.5s2.45-3.5,5.48-3.5h27.69c3,0,5.48,1.57,5.48,3.5s-2.45,3.5-5.48,3.5Z"/><path class="cls-4" d="M385.89,94.5H365.94a3.52,3.52,0,1,1,0-7h19.95a3.53,3.53,0,1,1,0,7Z"/><path class="cls-8" d="M353.72,95.13H313.14c-1.26,0-2.28-1.59-2.28-3.54s1-3.54,2.28-3.54h40.58c1.26,0,2.28,1.58,2.28,3.54s-1,3.54-2.28,3.54Z"/><path class="cls-10" d="M385.18,79.5H361.65c-2.57,0-4.65-1.57-4.65-3.5s2.08-3.5,4.65-3.5h23.53c2.57,0,4.65,1.57,4.66,3.5s-2.09,3.5-4.66,3.5Z"/><path class="cls-5" d="M289.6,79.5H262.34c-3,0-5.4-1.57-5.39-3.5s2.41-3.5,5.39-3.5H289.6c3,0,5.4,1.57,5.4,3.5s-2.41,3.5-5.39,3.5Z"/><path class="cls-4" d="M350.51,79.73H306.17c-1.38,0-2.5-1.58-2.49-3.54s1.11-3.54,2.49-3.54h44.34c1.37,0,2.49,1.59,2.49,3.54s-1.11,3.54-2.49,3.54Z"/><path class="cls-5" d="M386.36,41.5H375.22S371.61,42,372,45c0,0-.62,3,3.9,3.5h10.9S390,48,389.78,45,386.36,41.5,386.36,41.5Z"/><path class="cls-8" d="M365.52,41.5h-7.39S355.74,42,356,45a3.08,3.08,0,0,0,2.59,3.5h7.23s2.08-.48,2-3.49S365.52,41.5,365.52,41.5Z"/><path class="cls-4" d="M348.84,48.43H310.17c-1.2,0-2.17-1.59-2.17-3.54s1-3.54,2.17-3.54h38.67c1.2,0,2.17,1.58,2.17,3.54s-1,3.54-2.17,3.54Z"/><path class="cls-8" d="M386.13,63.62H323a3.54,3.54,0,1,1,0-7.08h63.09a3.54,3.54,0,1,1,0,7.08Z"/><path class="cls-9" d="M310.62,57.05h-8.79a3.09,3.09,0,0,0-2.51,3.5s-.49,3,3.07,3.5H311a3.11,3.11,0,0,0,2.32-3.49A3.59,3.59,0,0,0,310.62,57.05Z"/></g><g id="Layer_9" data-name="Layer 9"><path class="cls-7" d="M49.9,225.67H37.52s-4,.5-3.54,3.5c0,0-.69,3,4.33,3.5H50.43s3.51-.48,3.28-3.49S49.9,225.67,49.9,225.67Z"/><path class="cls-10" d="M88.75,220.3h-52c-1.61,0-2.92-1.59-2.92-3.55s1.31-3.53,2.92-3.53h52c1.62,0,2.93,1.58,2.93,3.53s-1.31,3.55-2.92,3.55Z"/><path class="cls-9" d="M111.43,181.31H100.27s-3.62.5-3.19,3.5c0,0-.61,3,3.91,3.5h10.92s3.15-.49,3-3.49S111.43,181.31,111.43,181.31Z"/><path class="cls-7" d="M89.08,188.94h-52c-1.61,0-2.92-1.59-2.92-3.55s1.31-3.53,2.92-3.53h52c1.62,0,2.93,1.58,2.93,3.53s-1.31,3.54-2.92,3.55Z"/><path class="cls-9" d="M93.08,203.2H36.88a3.56,3.56,0,0,1,0-7.08h56.2a3.56,3.56,0,0,1,0,7.08Z"/><path class="cls-9" d="M131.51,87.67H121.09s-3.38.5-3,3.5c0,0-.58,3,3.65,3.5H132a3.29,3.29,0,0,0,2.75-3.49A3.89,3.89,0,0,0,131.51,87.67Z"/><path class="cls-5" d="M210.66,94.37H145.39a3.54,3.54,0,1,1,0-7.08h65.27a3.54,3.54,0,1,1,0,7.08Z"/><path class="cls-10" d="M132.59,173H76.21a3.56,3.56,0,0,1,0-7.08h56.38a3.56,3.56,0,0,1,0,7.08Z"/><path class="cls-5" d="M63,173.67H39c-2.62,0-4.74-1.57-4.74-3.5s2.13-3.5,4.74-3.5H63c2.62,0,4.75,1.56,4.75,3.5s-2.12,3.5-4.74,3.5Z"/><path class="cls-8" d="M90.75,157.6H37.87a3.59,3.59,0,0,1,0-7.08H90.75a3.59,3.59,0,0,1,0,7.08Z"/><path class="cls-5" d="M145.53,150.67h-8.8a3.09,3.09,0,0,0-2.51,3.5s-.49,3,3.08,3.5h8.6a3.12,3.12,0,0,0,2.33-3.49A3.59,3.59,0,0,0,145.53,150.67Z"/><path class="cls-7" d="M123.91,157.67h-19.4a3.51,3.51,0,1,1,0-7h19.4a3.51,3.51,0,1,1,0,7Z"/><path class="cls-7" d="M169.06,111.09H145.2c-2.61,0-4.72-1.57-4.72-3.5s2.11-3.5,4.72-3.5h23.86c2.61,0,4.73,1.56,4.73,3.5s-2.11,3.5-4.72,3.5Z"/><path class="cls-8" d="M82.54,110.72H37c-1.41,0-2.55-1.59-2.55-3.55s1.14-3.53,2.55-3.53H82.54c1.42,0,2.56,1.58,2.56,3.53s-1.14,3.54-2.55,3.55Z"/><path class="cls-4" d="M133.22,110.79H92.16c-1.28,0-2.31-1.59-2.31-3.55s1-3.53,2.31-3.53h41.06c1.28,0,2.31,1.58,2.31,3.53s-1,3.54-2.3,3.55Z"/><path class="cls-9" d="M223.76,110.48H181.48c-1.31,0-2.38-1.58-2.38-3.54s1.07-3.54,2.38-3.54h42.28c1.31,0,2.38,1.59,2.38,3.54s-1.06,3.54-2.38,3.54Z"/><path class="cls-7" d="M84.29,141.54H58.77c-2.79,0-5.05-1.57-5.05-3.51s2.26-3.49,5.05-3.49H84.29c2.79,0,5,1.56,5.06,3.49s-2.26,3.5-5,3.51Z"/><path class="cls-9" d="M122.8,141.54h-23c-2.52,0-4.55-1.57-4.55-3.51s2-3.49,4.55-3.49h23c2.51,0,4.54,1.56,4.55,3.49s-2,3.5-4.55,3.51Z"/><path class="cls-5" d="M177.84,142H133.31c-1.38,0-2.5-1.58-2.5-3.54s1.12-3.53,2.5-3.54h44.53c1.38,0,2.51,1.59,2.51,3.54s-1.12,3.54-2.51,3.54Z"/><path class="cls-4" d="M46.62,134.67H37.83a3.09,3.09,0,0,0-2.52,3.5s-.48,3,3.08,3.5H47a3.12,3.12,0,0,0,2.32-3.49A3.59,3.59,0,0,0,46.62,134.67Z"/><path class="cls-4" d="M152.22,119.67h-8.8a3.09,3.09,0,0,0-2.51,3.5s-.48,3,3.08,3.5h8.61a3.12,3.12,0,0,0,2.32-3.49A3.59,3.59,0,0,0,152.22,119.67Z"/><path class="cls-5" d="M129.7,126.79H60.91a3.55,3.55,0,1,1,0-7.08H129.7a3.55,3.55,0,1,1,0,7.08Z"/><path class="cls-7" d="M46,126.67h-9.4c-1,0-1.86-1.57-1.86-3.5s.83-3.5,1.86-3.5H46c1,0,1.87,1.56,1.87,3.5s-.84,3.5-1.86,3.5Z"/><path class="cls-10" d="M232.62,87.67h-8.79a3.09,3.09,0,0,0-2.52,3.5s-.48,3,3.08,3.5H233a3.12,3.12,0,0,0,2.32-3.49A3.59,3.59,0,0,0,232.62,87.67Z"/><path class="cls-10" d="M105.83,94.79H38.5a3.55,3.55,0,1,1,0-7.08h67.33a3.55,3.55,0,1,1,0,7.08Z"/><path class="cls-7" d="M245.58,72.67h-8.8a3.09,3.09,0,0,0-2.51,3.5s-.48,3,3.08,3.5H246a3.12,3.12,0,0,0,2.32-3.49A3.59,3.59,0,0,0,245.58,72.67Z"/><path class="cls-9" d="M222,79.67H200.48c-2.35,0-4.26-1.57-4.26-3.5s1.91-3.5,4.26-3.5H222c2.36,0,4.27,1.56,4.27,3.5s-1.91,3.5-4.26,3.5Z"/><path class="cls-4" d="M186.58,72.67h-8.8a3.09,3.09,0,0,0-2.51,3.5s-.48,3,3.08,3.5H187a3.12,3.12,0,0,0,2.32-3.49A3.59,3.59,0,0,0,186.58,72.67Z"/><path class="cls-8" d="M167.92,79.34H126.61c-1.28,0-2.32-1.58-2.32-3.54s1-3.54,2.32-3.54h41.31c1.28,0,2.32,1.59,2.32,3.54s-1,3.54-2.32,3.54Z"/><path class="cls-7" d="M116.57,79.2H60.37a3.56,3.56,0,0,1,0-7.08h56.2a3.56,3.56,0,0,1,0,7.08Z"/><path class="cls-5" d="M47.79,72.67H37.37s-3.38.5-3,3.5c0,0-.58,3,3.65,3.5h10.2A3.29,3.29,0,0,0,51,76.18,3.89,3.89,0,0,0,47.79,72.67Z"/><path class="cls-8" d="M266,64.8H203a3.54,3.54,0,0,1,0-7.08h63a3.54,3.54,0,0,1,0,7.08Z"/><path class="cls-7" d="M112.81,57.22H104a3.09,3.09,0,0,0-2.51,3.5s-.49,3,3.08,3.5h8.6a3.12,3.12,0,0,0,2.33-3.49A3.59,3.59,0,0,0,112.81,57.22Z"/><path class="cls-5" d="M132.81,57.22H124a3.09,3.09,0,0,0-2.51,3.5s-.49,3,3.08,3.5h8.6a3.12,3.12,0,0,0,2.33-3.49A3.59,3.59,0,0,0,132.81,57.22Z"/><path class="cls-7" d="M191.33,64.52H143.66c-1.48,0-2.68-1.58-2.68-3.54s1.2-3.53,2.68-3.54h47.67C192.81,57.44,194,59,194,61s-1.2,3.54-2.68,3.54Z"/><path class="cls-7" d="M291.55,64.22H276.5a3.55,3.55,0,0,1,0-7h15.05a3.55,3.55,0,0,1,0,7Z"/><path class="cls-9" d="M94.92,64.58h-57a3.56,3.56,0,0,1,0-7.08h57a3.56,3.56,0,0,1,0,7.08Z"/><path class="cls-9" d="M299.25,49H251.57c-1.48,0-2.67-1.59-2.67-3.54s1.2-3.54,2.67-3.54h47.68c1.48,0,2.68,1.58,2.68,3.54S300.73,49,299.25,49Z"/><path class="cls-8" d="M240.73,41.93h-8.8a3.09,3.09,0,0,0-2.51,3.5s-.49,3,3.08,3.5h8.6a3.12,3.12,0,0,0,2.33-3.49A3.6,3.6,0,0,0,240.73,41.93Z"/><path class="cls-7" d="M219.61,41.65h-8.79a3.09,3.09,0,0,0-2.52,3.5s-.48,3,3.08,3.5H220a3.13,3.13,0,0,0,2.32-3.5A3.59,3.59,0,0,0,219.61,41.65Z"/><path class="cls-9" d="M196.07,48.65H174.52c-2.36,0-4.27-1.57-4.27-3.51s1.91-3.49,4.27-3.49h21.55c2.36,0,4.27,1.56,4.27,3.49s-1.9,3.5-4.26,3.51Z"/><path class="cls-10" d="M160.61,41.65h-8.79a3.09,3.09,0,0,0-2.52,3.5s-.48,3,3.08,3.5H161a3.13,3.13,0,0,0,2.32-3.5A3.59,3.59,0,0,0,160.61,41.65Z"/><path class="cls-4" d="M142,48.32H100.64c-1.28,0-2.32-1.59-2.32-3.54s1-3.54,2.32-3.54H142c1.28,0,2.32,1.58,2.32,3.54s-1,3.54-2.32,3.54Z"/><path class="cls-8" d="M87.91,48.67H65.77c-2.42,0-4.39-1.57-4.38-3.5s2-3.5,4.38-3.5H87.91c2.42,0,4.39,1.56,4.39,3.5s-2,3.5-4.38,3.5Z"/></g></svg>