<svg xmlns="http://www.w3.org/2000/svg" viewBox="0 0 24 24"><defs><style>.cls-1{fill:#425ba9;}.cls-2{fill:#f6c744;}.cls-3{fill:#eb4733;}.cls-4{fill:#435ba9;}.cls-5{fill:#415ba9;}</style></defs><g id="Layer_2" data-name="Layer 2"><rect class="cls-1" x="2.75" y="6.45" width="1.82" height="4.23"/></g><g id="Layer_3" data-name="Layer 3"><rect class="cls-2" x="2.75" y="10.69" width="1.82" height="4.53"/></g><g id="Layer_4" data-name="Layer 4"><rect class="cls-3" x="2.75" y="15.22" width="1.82" height="3.34"/></g><g id="Layer_5" data-name="Layer 5"><polygon class="cls-3" points="4.58 11.78 4.58 14.3 7.6 11.17 7.45 8.79 4.58 11.78"/></g><g id="Layer_6" data-name="Layer 6"><polygon class="cls-2" points="7.6 11.17 12.21 6.45 9.72 6.45 7.43 8.81 7.6 11.17"/></g><g id="Layer_7" data-name="Layer 7"><polygon class="cls-4" points="6.9 11.89 5.69 13.15 8.17 16.13 10.14 15.71 6.9 11.89"/></g><g id="Layer_8" data-name="Layer 8"><polygon class="cls-2" points="10.14 15.71 8.17 16.13 10.2 18.56 12.55 18.56 10.14 15.71"/></g><g id="Layer_9" data-name="Layer 9"><rect class="cls-2" x="14.67" y="6.45" width="1.81" height="4.48"/></g><g id="Layer_10" data-name="Layer 10"><rect class="cls-3" x="14.67" y="10.93" width="1.81" height="4.28"/></g><g id="Layer_11" data-name="Layer 11"><rect class="cls-1" x="14.67" y="15.22" width="1.81" height="3.34"/></g><g id="Layer_12" data-name="Layer 12"><rect class="cls-3" x="17.26" y="5.67" width="1.56" height="3.12" transform="translate(10.77 25.26) rotate(-89.89)"/></g><g id="Layer_13" data-name="Layer 13"><rect class="cls-1" x="19.6" y="6.45" width="2.55" height="1.56"/></g><g id="Layer_14" data-name="Layer 14"><rect class="cls-5" x="16.48" y="11.68" width="2.85" height="1.55"/></g><g id="Layer_15" data-name="Layer 15"><rect class="cls-2" x="19.32" y="11.68" width="2.4" height="1.55"/></g></svg>