<svg id="Layer_1" data-name="Layer 1" xmlns="http://www.w3.org/2000/svg" viewBox="0 0 420 270"><defs><style>.cls-1{fill:#eb4733;}.cls-2{fill:#fff;}</style></defs><rect class="cls-1" x="-3.5" y="-84.5" width="426" height="426"/><path class="cls-2" d="M422-84V341H-3V-84H422m1-1H-4V342H423V-85Z"/><path class="cls-2" d="M113.2,123.91a3.22,3.22,0,0,1,.38,1.68,4.88,4.88,0,0,1-1,3.17,19.06,19.06,0,0,1-5.53,4.79,14,14,0,0,1-6.46,1.38,16.9,16.9,0,0,1-4.89-.67,57,57,0,0,1-5.46-2,51.58,51.58,0,0,0-5.61-2.1,8.37,8.37,0,0,1-7.8,4.75,7.4,7.4,0,0,1-4.57-1.3,4,4,0,0,1-1.7-3.34A4.91,4.91,0,0,1,73,126.13a11.08,11.08,0,0,1,6.38-1.66H80l.92-14.84a23.45,23.45,0,0,1,1.83-8.41A16.5,16.5,0,0,1,87,95.56a16.22,16.22,0,0,1,5.35-3.09,19.23,19.23,0,0,1,6.38-1c3.67,0,6.49,1,8.46,2.86A11.2,11.2,0,0,1,109,106.75a3.47,3.47,0,0,1-3.11,1.91,3.4,3.4,0,0,1-2.25-.69,2.43,2.43,0,0,1-.81-2,13,13,0,0,1,.2-1.68,11.92,11.92,0,0,0,.31-2.55,4.58,4.58,0,0,0-1.25-3.39,5.14,5.14,0,0,0-3.8-1.25,8.54,8.54,0,0,0-6.94,2.93q-2.44,2.93-3.11,9.2l-1.17,11.58a36.5,36.5,0,0,1-.66,4.23c2.17.38,4.89,1,8.16,1.79q2.85.72,4.38,1a14.34,14.34,0,0,0,2.71.31,11.88,11.88,0,0,0,5.07-1,12,12,0,0,0,4-3.19,1.81,1.81,0,0,1,1.38-.71A1.19,1.19,0,0,1,113.2,123.91Z"/><path class="cls-2" d="M140.56,119.68a3.61,3.61,0,0,1,.35,1.68c0,1.63-.49,2.6-1.48,2.91a23.26,23.26,0,0,1-6.73,1.22,12.67,12.67,0,0,1-3.82,6.86,9.43,9.43,0,0,1-6.48,2.58,9,9,0,0,1-5.23-1.48,9.49,9.49,0,0,1-3.29-3.93,12.53,12.53,0,0,1-1.12-5.3,15.49,15.49,0,0,1,1.48-6.91,11.66,11.66,0,0,1,4.08-4.75,10.31,10.31,0,0,1,5.76-1.7,8,8,0,0,1,6.25,2.67,11.49,11.49,0,0,1,2.78,6.61,30.53,30.53,0,0,0,5.71-1,2.88,2.88,0,0,1,.72-.1A1.12,1.12,0,0,1,140.56,119.68Zm-14.92,8.52a7.36,7.36,0,0,0,1.6-3.83,7.06,7.06,0,0,1-2.42-2.8,8.34,8.34,0,0,1-.84-3.68,9.07,9.07,0,0,1,.15-1.63h-.25a4,4,0,0,0-3.39,2,9.66,9.66,0,0,0-1.35,5.53,7.1,7.1,0,0,0,1.09,4.28,3.16,3.16,0,0,0,2.58,1.48A3.7,3.7,0,0,0,125.64,128.2Z"/><path class="cls-2" d="M162.79,119.12a1.41,1.41,0,0,1,1.17.51,2.09,2.09,0,0,1,.41,1.37,4.33,4.33,0,0,1-.61,2.48,3.48,3.48,0,0,1-1.84,1.3,16,16,0,0,1-5,.76,14.3,14.3,0,0,1-4.24-.61q-1.47,2.4-3.26,4.95a17.35,17.35,0,0,1-3.52,4,5.64,5.64,0,0,1-3.37,1.07,3.88,3.88,0,0,1-3.29-1.63,10.44,10.44,0,0,1-1.5-5.16q-.62-7.14-.61-12.49v-1.79a2.87,2.87,0,0,1,.92-2.34,4.24,4.24,0,0,1,2.6-.66,2.83,2.83,0,0,1,2,.58,2.6,2.6,0,0,1,.64,2q0,5.86.71,15.24c2-3,3.57-5.44,4.59-7.24a7.56,7.56,0,0,1-.76-3.52,7.84,7.84,0,0,1,.76-3.36,7.07,7.07,0,0,1,2.09-2.65,4.82,4.82,0,0,1,3-1,3,3,0,0,1,2.4,1,4.49,4.49,0,0,1,.92,3,13.92,13.92,0,0,1-1.23,5.25,35.58,35.58,0,0,0,5.15-.77l1.38-.25A1.58,1.58,0,0,1,162.79,119.12Z"/><path class="cls-2" d="M179.24,125.44a3.22,3.22,0,0,1,.38,1.68,5.66,5.66,0,0,1-.87,3.17A9.85,9.85,0,0,1,175,133.7a11.64,11.64,0,0,1-5.53,1.23,9.81,9.81,0,0,1-7.6-2.94,11.23,11.23,0,0,1-2.7-7.93,14.7,14.7,0,0,1,1.48-6.55,12.08,12.08,0,0,1,4.1-4.82,10.32,10.32,0,0,1,5.95-1.78,6.1,6.1,0,0,1,6.52,6.52,8.27,8.27,0,0,1-2.52,6q-2.52,2.52-8.59,4a4.27,4.27,0,0,0,4.13,2.35,5.8,5.8,0,0,0,3.44-1,17.16,17.16,0,0,0,3.14-3.27,1.72,1.72,0,0,1,1.37-.76A1.19,1.19,0,0,1,179.24,125.44Zm-12.6-7.34a10.18,10.18,0,0,0-1.3,5.3v.1a11.46,11.46,0,0,0,4.74-2.14,4.2,4.2,0,0,0,1.74-3.31,2.21,2.21,0,0,0-.54-1.56,1.88,1.88,0,0,0-1.45-.59A3.75,3.75,0,0,0,166.64,118.1Z"/><path class="cls-2" d="M232.48,123.91a3.12,3.12,0,0,1,.38,1.68,4.87,4.87,0,0,1-1,3.17,19,19,0,0,1-5.54,4.79,13.9,13.9,0,0,1-6.45,1.38,17,17,0,0,1-4.9-.67,58,58,0,0,1-5.45-2,51.58,51.58,0,0,0-5.61-2.1,8.4,8.4,0,0,1-7.81,4.75,7.39,7.39,0,0,1-4.56-1.3,4,4,0,0,1-1.71-3.34,4.92,4.92,0,0,1,2.4-4.16,11,11,0,0,1,6.37-1.66h.67l.91-14.84a23.65,23.65,0,0,1,1.84-8.41,16.6,16.6,0,0,1,4.23-5.66,16.27,16.27,0,0,1,5.36-3.09,19.17,19.17,0,0,1,6.37-1c3.68,0,6.5,1,8.47,2.86a11.2,11.2,0,0,1,1.84,12.47,3.48,3.48,0,0,1-3.12,1.91A3.35,3.35,0,0,1,223,108a2.44,2.44,0,0,1-.82-2,11.8,11.8,0,0,1,.21-1.68,12.59,12.59,0,0,0,.31-2.55,4.58,4.58,0,0,0-1.25-3.39,5.15,5.15,0,0,0-3.8-1.25,8.51,8.51,0,0,0-6.94,2.93q-2.44,2.93-3.11,9.2l-1.17,11.58a36.31,36.31,0,0,1-.67,4.23c2.18.38,4.9,1,8.16,1.79,1.91.48,3.37.82,4.39,1a14.33,14.33,0,0,0,2.7.31,12,12,0,0,0,5.08-1,12.1,12.1,0,0,0,4-3.19,1.81,1.81,0,0,1,1.38-.71A1.16,1.16,0,0,1,232.48,123.91Z"/><path class="cls-2" d="M256.6,123.91a3.12,3.12,0,0,1,.39,1.68,4.75,4.75,0,0,1-1,3.17,18.69,18.69,0,0,1-5.33,4.23,14.82,14.82,0,0,1-7.37,1.94q-5.35,0-8.31-2.91a10.62,10.62,0,0,1-3-8,14.7,14.7,0,0,1,1.48-6.55,12.08,12.08,0,0,1,4.1-4.82,10.31,10.31,0,0,1,5.94-1.78,6.45,6.45,0,0,1,4.75,1.76,6.37,6.37,0,0,1,1.78,4.76,8.27,8.27,0,0,1-2.52,6c-1.69,1.68-4.53,3-8.55,4q1.28,2.36,4.85,2.35a11.2,11.2,0,0,0,5.23-1.61,17.24,17.24,0,0,0,5.07-4.21,1.81,1.81,0,0,1,1.38-.71A1.16,1.16,0,0,1,256.6,123.91Zm-17.08-5.81a10.18,10.18,0,0,0-1.3,5.3v.1a11.52,11.52,0,0,0,4.74-2.14,4.2,4.2,0,0,0,1.74-3.31,2.21,2.21,0,0,0-.54-1.56,1.88,1.88,0,0,0-1.45-.59A3.75,3.75,0,0,0,239.52,118.1Z"/><path class="cls-2" d="M292.61,123.91a3.22,3.22,0,0,1,.38,1.68,4.69,4.69,0,0,1-1,3.17,21.59,21.59,0,0,1-4.79,4.43,10.47,10.47,0,0,1-6,1.74q-6.22,0-8.67-5.2a12.39,12.39,0,0,1-3.52,3.67,8,8,0,0,1-4.69,1.53,7.62,7.62,0,0,1-7.11-4Q255,127,255,120.29c0-1.67.08-3.52.25-5.56h-2.09a2.85,2.85,0,0,1-2.06-.56,2.49,2.49,0,0,1-.54-1.78c0-1.91.77-2.86,2.3-2.86H256a50.46,50.46,0,0,1,2.7-9.79,21.59,21.59,0,0,1,4.18-7,7.24,7.24,0,0,1,5.31-2.6A3.81,3.81,0,0,1,271.52,92a8.5,8.5,0,0,1,1.23,4.74,17.57,17.57,0,0,1-5.56,12.75h4.64a50.46,50.46,0,0,1,2.7-9.79,21.77,21.77,0,0,1,4.18-7,7.24,7.24,0,0,1,5.31-2.6A3.81,3.81,0,0,1,287.38,92a8.5,8.5,0,0,1,1.23,4.74,17.57,17.57,0,0,1-5.56,12.75h4.64a1.61,1.61,0,0,1,1.17.36,1.85,1.85,0,0,1,.36,1.32q0,3.53-5.76,3.52h-6.18c-.1,1.63-.15,3.3-.15,5q0,5.31,1.25,7.45a4.25,4.25,0,0,0,3.95,2.14,6.07,6.07,0,0,0,3.88-1.33,30.71,30.71,0,0,0,4-4,1.79,1.79,0,0,1,1.37-.71A1.18,1.18,0,0,1,292.61,123.91Zm-24.1,4a12.44,12.44,0,0,0,2.6-3.52,26.53,26.53,0,0,1-.25-4.08c0-1.67.08-3.52.25-5.56h-9.69c-.1,1.63-.15,3.3-.15,5,0,3.43.36,5.89,1.1,7.37a3.38,3.38,0,0,0,3.08,2.22A4.55,4.55,0,0,0,268.51,127.89ZM265.07,97a27,27,0,0,0-1.78,5.3,70.35,70.35,0,0,0-1.41,7.52,17.43,17.43,0,0,0,4.52-5.84,14.15,14.15,0,0,0,1.5-5.89c0-2-.37-3-1.12-3C266.27,95.05,265.7,95.68,265.07,97Zm15.86,0a27,27,0,0,0-1.78,5.3,70.35,70.35,0,0,0-1.41,7.52,17.43,17.43,0,0,0,4.52-5.84,14.15,14.15,0,0,0,1.5-5.89c0-2-.37-3-1.12-3C282.13,95.05,281.56,95.68,280.93,97Z"/><path class="cls-2" d="M312.65,123.91a3.12,3.12,0,0,1,.38,1.68,4.75,4.75,0,0,1-1,3.17,18.69,18.69,0,0,1-5.33,4.23,14.84,14.84,0,0,1-7.37,1.94c-3.57,0-6.35-1-8.32-2.91a10.66,10.66,0,0,1-3-8,14.83,14.83,0,0,1,1.48-6.55,12.18,12.18,0,0,1,4.11-4.82,10.31,10.31,0,0,1,5.94-1.78,6.11,6.11,0,0,1,6.53,6.52,8.24,8.24,0,0,1-2.53,6q-2.52,2.52-8.54,4,1.28,2.36,4.85,2.35a11.13,11.13,0,0,0,5.22-1.61,17.15,17.15,0,0,0,5.08-4.21,1.81,1.81,0,0,1,1.38-.71A1.16,1.16,0,0,1,312.65,123.91Zm-17.08-5.81a10.18,10.18,0,0,0-1.3,5.3v.1a11.58,11.58,0,0,0,4.74-2.14,4.19,4.19,0,0,0,1.73-3.31,2.25,2.25,0,0,0-.53-1.56,1.88,1.88,0,0,0-1.46-.59A3.74,3.74,0,0,0,295.57,118.1Z"/><path class="cls-2" d="M331.42,118.68a2.68,2.68,0,0,1,.79,2,3.77,3.77,0,0,1-.31,1.43,8.7,8.7,0,0,1-2.29,3.16,4.88,4.88,0,0,1-3.27,1.27,3.26,3.26,0,0,1-2.42-1,3.79,3.79,0,0,1-1-2.75c0-.65,0-1.34.1-2.09a10.32,10.32,0,0,0,.1-1.12.92.92,0,0,0-.18-.62.57.57,0,0,0-.43-.2c-.48,0-1.12.57-1.94,1.71a25.68,25.68,0,0,0-2.45,4.51,37.05,37.05,0,0,0-2,5.92,8.06,8.06,0,0,1-1.28,3.26,3,3,0,0,1-2.35.82,2.77,2.77,0,0,1-2.72-2,19.44,19.44,0,0,1-.8-6.53,41.5,41.5,0,0,1,1.89-12.6,3.88,3.88,0,0,1,1.51-2.17,5.36,5.36,0,0,1,2.93-.68,2.91,2.91,0,0,1,1.43.25,1.06,1.06,0,0,1,.41,1,19.61,19.61,0,0,1-.77,3.67c-.34,1.36-.61,2.55-.82,3.57s-.37,2.28-.51,3.78a28.85,28.85,0,0,1,3.78-7.14,14.8,14.8,0,0,1,4.08-3.93,7.25,7.25,0,0,1,3.62-1.17,3,3,0,0,1,2.27.84,3.46,3.46,0,0,1,.79,2.47,22.54,22.54,0,0,1-.56,3.67h.46A2.64,2.64,0,0,1,331.42,118.68Z"/><path class="cls-2" d="M338.31,134.83a3.61,3.61,0,0,1-1.41-2.76,3.15,3.15,0,0,1,1-2.29,3.87,3.87,0,0,1,2.86-1,10.41,10.41,0,0,1,1.55.13l1.35.17a6.49,6.49,0,0,0-.58-2.5,13.3,13.3,0,0,0-1.35-2.27c-.55-.73-1.06-1.36-1.53-1.91a33.59,33.59,0,0,1-3.14,5,37.71,37.71,0,0,1-3.39,3.77,2.7,2.7,0,0,1-1.94.92,1.65,1.65,0,0,1-1.32-.58,2.15,2.15,0,0,1-.51-1.46,2.85,2.85,0,0,1,.71-1.88l.66-.82a66,66,0,0,0,4.23-5.71,32,32,0,0,0,1.87-3.52c.62-1.36,1.45-3.21,2.47-5.56.65-1.5,2-2.24,4-2.24a5.41,5.41,0,0,1,2,.25.85.85,0,0,1,.56.82,3.76,3.76,0,0,1-.21,1,6.78,6.78,0,0,1-.56,1.32,7.29,7.29,0,0,0-.91,3.11,3.4,3.4,0,0,0,.53,1.69,19.63,19.63,0,0,0,1.66,2.29,31.46,31.46,0,0,1,2.47,3.65,6.63,6.63,0,0,1,.84,3.29,8.69,8.69,0,0,1-1,4,8.11,8.11,0,0,1-2.78,3.09,7.27,7.27,0,0,1-4.08,1.17A6,6,0,0,1,338.31,134.83Z"/><path class="cls-2" d="M139.63,162.93v-6.71h1.09v6.71Zm.75-3a7.39,7.39,0,0,1,.25-2.11,2.54,2.54,0,0,1,.71-1.26,1.69,1.69,0,0,1,1.16-.42,2.5,2.5,0,0,1,.4,0,2.62,2.62,0,0,1,.38.09l-.07,1.08a3.83,3.83,0,0,0-.43-.11,2.1,2.1,0,0,0-.41,0,1.33,1.33,0,0,0-1,.34,1.94,1.94,0,0,0-.53.95,5.69,5.69,0,0,0-.16,1.45Z"/><path class="cls-2" d="M146.55,163.09a2.81,2.81,0,0,1-1.37-.29,2,2,0,0,1-.8-.76,1.94,1.94,0,0,1-.27-1,1.79,1.79,0,0,1,.34-1.11,2,2,0,0,1,.93-.62,4.16,4.16,0,0,1,1.32-.2,5.51,5.51,0,0,1,1.06.1,7.52,7.52,0,0,1,1,.29v.69a4.84,4.84,0,0,0-.95-.27,5.92,5.92,0,0,0-1-.1,2.08,2.08,0,0,0-1.13.28,1,1,0,0,0-.47.94,1.12,1.12,0,0,0,.36.84,1.56,1.56,0,0,0,1.13.35,1.91,1.91,0,0,0,1-.25,2.19,2.19,0,0,0,.7-.65,1.35,1.35,0,0,0,.25-.76H149a2.76,2.76,0,0,1-.29,1.24,2.48,2.48,0,0,1-.83.93A2.34,2.34,0,0,1,146.55,163.09Zm2.28-.16-.14-1.47v-2.87a1.84,1.84,0,0,0-.38-1.3,1.54,1.54,0,0,0-1.16-.4,2.22,2.22,0,0,0-.79.13,1.19,1.19,0,0,0-.56.39,1.09,1.09,0,0,0-.2.67h-1.22a1.82,1.82,0,0,1,.36-1.17,1.9,1.9,0,0,1,1-.64,4.49,4.49,0,0,1,1.43-.2,3.32,3.32,0,0,1,1.37.26,2,2,0,0,1,.93.82,2.86,2.86,0,0,1,.33,1.47v4.31Z"/><path class="cls-2" d="M152.39,162.93v-6.7h.94l.16,1.54v5.16Zm4.76,0V159a2.08,2.08,0,0,0-.46-1.46,1.6,1.6,0,0,0-1.24-.5,1.71,1.71,0,0,0-1,.33,2.11,2.11,0,0,0-.68.94,4,4,0,0,0-.23,1.46h-.42a5.83,5.83,0,0,1,.3-2,2.82,2.82,0,0,1,.9-1.27,2.38,2.38,0,0,1,1.44-.43,2.48,2.48,0,0,1,1.36.35,2.31,2.31,0,0,1,.86,1,3.74,3.74,0,0,1,.3,1.56v3.94Z"/><path class="cls-2" d="M163.24,163.09a2.67,2.67,0,0,1-1.49-.43,3,3,0,0,1-1.09-1.24,4,4,0,0,1-.41-1.87,4.1,4.1,0,0,1,.4-1.85,3,3,0,0,1,1.06-1.21,2.67,2.67,0,0,1,1.46-.42,2.4,2.4,0,0,1,1.29.35,2.31,2.31,0,0,1,.86,1,3.82,3.82,0,0,1,.31,1.63h-.42A2.24,2.24,0,0,0,165,158a1.74,1.74,0,0,0-.68-.69,1.82,1.82,0,0,0-.91-.24,1.74,1.74,0,0,0-1,.31,2.09,2.09,0,0,0-.72.87,3,3,0,0,0-.27,1.34,3.19,3.19,0,0,0,.27,1.37,2.15,2.15,0,0,0,.72.89,1.81,1.81,0,0,0,1,.31,1.74,1.74,0,0,0,.88-.24,1.88,1.88,0,0,0,.7-.7,2.15,2.15,0,0,0,.27-1.11h.42a3.88,3.88,0,0,1-.32,1.65,2.45,2.45,0,0,1-.86,1A2.21,2.21,0,0,1,163.24,163.09Zm2.15-.16-.18-1.57v-8h1.09v9.55Z"/><path class="cls-2" d="M171.56,163.09a3.28,3.28,0,0,1-1.61-.39,2.79,2.79,0,0,1-1.11-1.19,4.86,4.86,0,0,1,0-3.86,2.71,2.71,0,0,1,1.11-1.18,3.18,3.18,0,0,1,1.61-.4,3.14,3.14,0,0,1,1.6.4,2.63,2.63,0,0,1,1.1,1.18,4.75,4.75,0,0,1,0,3.86,2.71,2.71,0,0,1-1.1,1.19A3.24,3.24,0,0,1,171.56,163.09Zm0-1a1.91,1.91,0,0,0,1.11-.31,2,2,0,0,0,.69-.88,3.78,3.78,0,0,0,.23-1.37,3.12,3.12,0,0,0-.5-1.89,1.69,1.69,0,0,0-1.47-.69,1.84,1.84,0,0,0-1.8,1.21,3.74,3.74,0,0,0-.23,1.37,3.07,3.07,0,0,0,.5,1.87A1.69,1.69,0,0,0,171.53,162.14Z"/><path class="cls-2" d="M176.79,162.93v-6.7h.94l.12,1.35a2.52,2.52,0,0,1,.89-1.12,2.35,2.35,0,0,1,1.37-.39,2.47,2.47,0,0,1,1.35.35,2.33,2.33,0,0,1,.87,1,3.74,3.74,0,0,1,.3,1.56v3.94h-1.08V159a2.08,2.08,0,0,0-.46-1.46,1.63,1.63,0,0,0-1.25-.5,1.68,1.68,0,0,0-1,.33,2,2,0,0,0-.68.94,4,4,0,0,0-.24,1.46v3.17Zm9.41,0V159a2.13,2.13,0,0,0-.46-1.46,1.62,1.62,0,0,0-1.24-.5,1.59,1.59,0,0,0-1.39.71,3.39,3.39,0,0,0-.48,1.94h-.51a6.19,6.19,0,0,1,.18-1.58,3.11,3.11,0,0,1,.52-1.13,2.25,2.25,0,0,1,.83-.68,2.67,2.67,0,0,1,1.12-.22,2.42,2.42,0,0,1,1.35.35,2.27,2.27,0,0,1,.87,1,3.74,3.74,0,0,1,.3,1.56v3.94Z"/><path class="cls-2" d="M193.21,166.22v-10h.91l.18,1.57v8.42Zm3-3.13a2.41,2.41,0,0,1-1.28-.33,2.2,2.2,0,0,1-.84-1,4,4,0,0,1-.29-1.58h.46a2,2,0,0,0,.26,1.05,1.67,1.67,0,0,0,.68.64,1.81,1.81,0,0,0,.88.23,1.76,1.76,0,0,0,1-.3,2.09,2.09,0,0,0,.75-.85,3,3,0,0,0,.3-1.4,3.19,3.19,0,0,0-.27-1.37,2,2,0,0,0-.73-.87,1.78,1.78,0,0,0-1-.3,1.88,1.88,0,0,0-.9.23,1.78,1.78,0,0,0-.68.68,2.18,2.18,0,0,0-.26,1.1h-.46a3.8,3.8,0,0,1,.32-1.64,2.4,2.4,0,0,1,.88-1,2.35,2.35,0,0,1,1.24-.33,2.72,2.72,0,0,1,1.46.42,3.12,3.12,0,0,1,1.1,1.2,3.92,3.92,0,0,1,.42,1.88,3.85,3.85,0,0,1-.43,1.89,3,3,0,0,1-1.11,1.21A2.67,2.67,0,0,1,196.25,163.09Z"/><path class="cls-2" d="M203.81,163.09a3.24,3.24,0,0,1-1.6-.39,2.79,2.79,0,0,1-1.11-1.19,4.75,4.75,0,0,1,0-3.86,2.71,2.71,0,0,1,1.11-1.18,3.4,3.4,0,0,1,3.2,0,2.71,2.71,0,0,1,1.11,1.18,4.86,4.86,0,0,1,0,3.86,2.79,2.79,0,0,1-1.11,1.19A3.24,3.24,0,0,1,203.81,163.09Zm0-1a1.87,1.87,0,0,0,1.1-.31,1.85,1.85,0,0,0,.69-.88,3.57,3.57,0,0,0,.24-1.37,3.19,3.19,0,0,0-.5-1.89,1.7,1.7,0,0,0-1.48-.69,1.89,1.89,0,0,0-1.11.32,1.82,1.82,0,0,0-.68.89,3.53,3.53,0,0,0-.24,1.37,3.14,3.14,0,0,0,.5,1.87A1.72,1.72,0,0,0,203.79,162.14Z"/><path class="cls-2" d="M211.37,163.09a2.73,2.73,0,0,1-1.55-.44,3.08,3.08,0,0,1-1.08-1.23,4,4,0,0,1-.4-1.83,4.18,4.18,0,0,1,.39-1.88,2.93,2.93,0,0,1,1.08-1.22,2.89,2.89,0,0,1,1.56-.42,2.53,2.53,0,0,1,1.3.31,2.39,2.39,0,0,1,.87.83,3.5,3.5,0,0,1,.46,1.18,5.19,5.19,0,0,1,.07,1.37h-4.84v-.67h4.12l-.32.21a3.9,3.9,0,0,0-.05-.83,2.52,2.52,0,0,0-.25-.76,1.42,1.42,0,0,0-.51-.55,1.54,1.54,0,0,0-.84-.21,1.74,1.74,0,0,0-1.08.33,2.07,2.07,0,0,0-.65.86,3.19,3.19,0,0,0-.21,1.16v.45a3.49,3.49,0,0,0,.21,1.25,1.92,1.92,0,0,0,.64.88,2,2,0,0,0,2.15,0A1.35,1.35,0,0,0,213,161h1.13a2.53,2.53,0,0,1-.47,1.15,2.58,2.58,0,0,1-1,.74A3.13,3.13,0,0,1,211.37,163.09Z"/><path class="cls-2" d="M216.23,162.93v-6.7h.94l.13,1.35a2.5,2.5,0,0,1,.88-1.12,2.37,2.37,0,0,1,1.37-.39,2.42,2.42,0,0,1,1.35.35,2.27,2.27,0,0,1,.87,1,3.74,3.74,0,0,1,.3,1.56v3.94H221V159a2.08,2.08,0,0,0-.46-1.46,1.61,1.61,0,0,0-1.25-.5,1.7,1.7,0,0,0-1,.33,2.11,2.11,0,0,0-.68.94,4,4,0,0,0-.24,1.46v3.17Zm9.41,0V159a2.08,2.08,0,0,0-.46-1.46,1.75,1.75,0,0,0-2.63.21,3.39,3.39,0,0,0-.48,1.94h-.5a6.71,6.71,0,0,1,.17-1.58,3.12,3.12,0,0,1,.53-1.13,2.17,2.17,0,0,1,.83-.68,2.65,2.65,0,0,1,1.11-.22,2.48,2.48,0,0,1,1.36.35,2.31,2.31,0,0,1,.86,1,3.74,3.74,0,0,1,.3,1.56v3.94Z"/><path class="cls-2" d="M235,166.37a5.09,5.09,0,0,1-1.79-.29,2.8,2.8,0,0,1-1.17-.78,1.58,1.58,0,0,1-.41-1.07,1.38,1.38,0,0,1,.57-1.19,2.48,2.48,0,0,1,1.47-.41l.6.38a1.91,1.91,0,0,0-1.17.32,1,1,0,0,0-.41.86,1.09,1.09,0,0,0,.59.92,3.2,3.2,0,0,0,1.72.38,4.12,4.12,0,0,0,1.47-.24,2.49,2.49,0,0,0,1-.63,1.21,1.21,0,0,0,.35-.84.7.7,0,0,0-.23-.54,1,1,0,0,0-.7-.23h-2.61a3,3,0,0,1-1.17-.21,1.75,1.75,0,0,1-.76-.54,1.14,1.14,0,0,1-.27-.73,1.12,1.12,0,0,1,.24-.72,1.56,1.56,0,0,1,.62-.44,2.07,2.07,0,0,1,.82-.16l.21.41a1.06,1.06,0,0,0-.42.09,1,1,0,0,0-.36.28.79.79,0,0,0-.14.47.68.68,0,0,0,.27.54,1.6,1.6,0,0,0,1,.21h2.61a2.48,2.48,0,0,1,1.48.4,1.32,1.32,0,0,1,.55,1.11,2.08,2.08,0,0,1-.47,1.27,3.47,3.47,0,0,1-1.35,1A5.1,5.1,0,0,1,235,166.37Zm.2-5.4a3.12,3.12,0,0,1-1.39-.31,2.42,2.42,0,0,1-1-.86,2.47,2.47,0,0,1,0-2.57,2.34,2.34,0,0,1,1-.86,3.12,3.12,0,0,1,1.39-.3,3.08,3.08,0,0,1,1.36.3,2.38,2.38,0,0,1,1,.86,2.42,2.42,0,0,1,0,2.57,2.45,2.45,0,0,1-1,.86A3.09,3.09,0,0,1,235.22,161Zm0-.79a1.53,1.53,0,0,0,1.19-.47,1.71,1.71,0,0,0,.43-1.19,1.68,1.68,0,0,0-.43-1.2,1.55,1.55,0,0,0-1.19-.45,1.63,1.63,0,0,0-1.21.45,1.68,1.68,0,0,0-.43,1.2,1.71,1.71,0,0,0,.43,1.19A1.6,1.6,0,0,0,235.22,160.18Zm2.19-3.05-.51-.21a2.12,2.12,0,0,1,.23-1,1.61,1.61,0,0,1,.65-.69,2,2,0,0,1,1-.25l-.08,1.07a1.51,1.51,0,0,0-1,.27A1,1,0,0,0,237.41,157.13Z"/><path class="cls-2" d="M242.88,163.09a2.75,2.75,0,0,1-1.55-.44,3.24,3.24,0,0,1-1.08-1.23,4.1,4.1,0,0,1-.39-1.83,4.18,4.18,0,0,1,.39-1.88,2.91,2.91,0,0,1,1.07-1.22,2.94,2.94,0,0,1,1.56-.42,2.53,2.53,0,0,1,1.3.31,2.39,2.39,0,0,1,.87.83,3.5,3.5,0,0,1,.46,1.18,5.19,5.19,0,0,1,.07,1.37h-4.84v-.67h4.12l-.32.21a3.9,3.9,0,0,0,0-.83,2.5,2.5,0,0,0-.24-.76,1.45,1.45,0,0,0-1.36-.76,1.71,1.71,0,0,0-1.07.33,2,2,0,0,0-.65.86,3,3,0,0,0-.22,1.16v.45a3.49,3.49,0,0,0,.21,1.25,2,2,0,0,0,.64.88,1.8,1.8,0,0,0,1.08.32,1.74,1.74,0,0,0,1.07-.32,1.35,1.35,0,0,0,.51-.93h1.14a2.43,2.43,0,0,1-.48,1.15,2.54,2.54,0,0,1-.94.74A3.21,3.21,0,0,1,242.88,163.09Z"/><path class="cls-2" d="M247.75,162.93v-6.7h.93l.16,1.54v5.16Zm4.75,0V159a2.13,2.13,0,0,0-.45-1.46,1.64,1.64,0,0,0-1.25-.5,1.73,1.73,0,0,0-1.05.33,2,2,0,0,0-.67.94,4,4,0,0,0-.24,1.46h-.42a5.58,5.58,0,0,1,.31-2,2.73,2.73,0,0,1,.89-1.27,2.38,2.38,0,0,1,1.44-.43,2.48,2.48,0,0,1,1.36.35,2.31,2.31,0,0,1,.86,1,3.74,3.74,0,0,1,.3,1.56v3.94Z"/><path class="cls-2" d="M258.52,163.09a2.73,2.73,0,0,1-1.55-.44,3.08,3.08,0,0,1-1.08-1.23,4.11,4.11,0,0,1-.4-1.83,4,4,0,0,1,.4-1.88,2.79,2.79,0,0,1,2.63-1.64,2.53,2.53,0,0,1,1.3.31,2.39,2.39,0,0,1,.87.83,3.5,3.5,0,0,1,.46,1.18,5.19,5.19,0,0,1,.07,1.37h-4.84v-.67h4.12l-.32.21a3.9,3.9,0,0,0-.05-.83,2.52,2.52,0,0,0-.25-.76,1.42,1.42,0,0,0-.51-.55,1.54,1.54,0,0,0-.84-.21,1.74,1.74,0,0,0-1.08.33,2.16,2.16,0,0,0-.65.86,3.19,3.19,0,0,0-.21,1.16v.45a3.49,3.49,0,0,0,.21,1.25,2,2,0,0,0,.64.88,2,2,0,0,0,2.15,0,1.35,1.35,0,0,0,.51-.93h1.13a2.53,2.53,0,0,1-.47,1.15,2.5,2.5,0,0,1-.95.74A3.13,3.13,0,0,1,258.52,163.09Z"/><path class="cls-2" d="M263.38,162.93v-6.71h1.09v6.71Zm.76-3a7.8,7.8,0,0,1,.24-2.11,2.62,2.62,0,0,1,.72-1.26,1.68,1.68,0,0,1,1.15-.42,2.54,2.54,0,0,1,.41,0,2.62,2.62,0,0,1,.38.09l-.07,1.08-.43-.11a2.1,2.1,0,0,0-.41,0,1.33,1.33,0,0,0-1,.34,1.87,1.87,0,0,0-.53.95,5.66,5.66,0,0,0-.17,1.45Z"/><path class="cls-2" d="M270.31,163.09a2.78,2.78,0,0,1-1.37-.29,2,2,0,0,1-.8-.76,1.94,1.94,0,0,1-.27-1,1.73,1.73,0,0,1,.34-1.11,2,2,0,0,1,.93-.62,4.16,4.16,0,0,1,1.32-.2,5.33,5.33,0,0,1,1.05.1,7.27,7.27,0,0,1,1,.29v.69a4.84,4.84,0,0,0-.95-.27,5.92,5.92,0,0,0-1-.1,2.14,2.14,0,0,0-1.14.28,1,1,0,0,0-.46.94,1.12,1.12,0,0,0,.36.84,1.56,1.56,0,0,0,1.13.35,1.91,1.91,0,0,0,1-.25,2.05,2.05,0,0,0,.69-.65,1.36,1.36,0,0,0,.26-.76h.26a2.63,2.63,0,0,1-.29,1.24,2.39,2.39,0,0,1-.83.93A2.31,2.31,0,0,1,270.31,163.09Zm2.28-.16-.14-1.47v-2.87a1.79,1.79,0,0,0-.39-1.3,1.5,1.5,0,0,0-1.15-.4,2.22,2.22,0,0,0-.79.13,1.14,1.14,0,0,0-.56.39,1,1,0,0,0-.21.67h-1.21a1.81,1.81,0,0,1,.35-1.17,2,2,0,0,1,1-.64,4.45,4.45,0,0,1,1.43-.2,3.24,3.24,0,0,1,1.36.26,1.9,1.9,0,0,1,.93.82,2.76,2.76,0,0,1,.34,1.47v4.31Z"/><path class="cls-2" d="M275.21,157v-.76h4.27V157Zm3,6.1a2.21,2.21,0,0,1-1-.21,1.5,1.5,0,0,1-.69-.63,2.08,2.08,0,0,1-.25-1v-6.84h1.08v6.81c0,.69.32,1,1,1a2.53,2.53,0,0,0,.56-.06,5.81,5.81,0,0,0,.61-.19l.15.79a6.68,6.68,0,0,1-.71.25A2.92,2.92,0,0,1,278.21,163.09Z"/><path class="cls-2" d="M283.84,163.09a3.25,3.25,0,0,1-1.61-.39,2.79,2.79,0,0,1-1.11-1.19,4.75,4.75,0,0,1,0-3.86,2.71,2.71,0,0,1,1.11-1.18,3.42,3.42,0,0,1,3.21,0,2.69,2.69,0,0,1,1.1,1.18,4.86,4.86,0,0,1,0,3.86,2.77,2.77,0,0,1-1.1,1.19A3.27,3.27,0,0,1,283.84,163.09Zm0-1a1.93,1.93,0,0,0,1.11-.31,1.89,1.89,0,0,0,.68-.88,3.57,3.57,0,0,0,.24-1.37,3.19,3.19,0,0,0-.5-1.89,1.7,1.7,0,0,0-1.48-.69,1.93,1.93,0,0,0-1.11.32,1.88,1.88,0,0,0-.68.89,3.53,3.53,0,0,0-.24,1.37,3.14,3.14,0,0,0,.5,1.87A1.72,1.72,0,0,0,283.81,162.14Z"/><path class="cls-2" d="M289.07,162.93v-6.71h1.09v6.71Zm.75-3a7.39,7.39,0,0,1,.25-2.11,2.54,2.54,0,0,1,.71-1.26,1.69,1.69,0,0,1,1.16-.42,2.5,2.5,0,0,1,.4,0,2.62,2.62,0,0,1,.38.09l-.07,1.08a3.83,3.83,0,0,0-.43-.11,2.1,2.1,0,0,0-.41,0,1.33,1.33,0,0,0-1,.34,1.94,1.94,0,0,0-.53.95,5.69,5.69,0,0,0-.16,1.45Z"/></svg>