<svg id="Layer_3" data-name="Layer 3" xmlns="http://www.w3.org/2000/svg" viewBox="0 0 420 270"><defs><style>.cls-1{fill:#f6c744;}.cls-2{fill:#fff;}.cls-3{fill:none;stroke:#fff;stroke-miterlimit:10;stroke-width:2px;}</style></defs><rect class="cls-1" x="-6" y="-64" width="429" height="423"/><path class="cls-2" d="M65.39,126.67A1.21,1.21,0,0,1,66.76,128v15.61a1.36,1.36,0,1,1-2.72,0v-1c-1.27,1.56-3.26,2.35-6,2.35H57c-2.41,0-4.18-.58-5.33-1.73S50,140.35,50,137.94V128a1.36,1.36,0,1,1,2.72,0v9.91q0,2.51.93,3.42a4.82,4.82,0,0,0,3.4.93h1a11.05,11.05,0,0,0,4.09-.66,2.7,2.7,0,0,0,1.89-2V128A1.2,1.2,0,0,1,65.39,126.67Z"/><path class="cls-2" d="M75.56,152.41A1.21,1.21,0,0,1,74.19,151V128a1.36,1.36,0,1,1,2.72,0v.87a5.7,5.7,0,0,1,2.45-1.67,10.13,10.13,0,0,1,3.53-.56H84.3c2.4,0,4.18.58,5.32,1.73s1.72,2.92,1.72,5.32v4.22c0,2.41-.57,4.18-1.72,5.34S86.7,145,84.3,145H76.91v6A1.2,1.2,0,0,1,75.56,152.41Zm1.35-10.12H84.3c1.66,0,2.8-.31,3.41-.93s.91-1.75.91-3.42v-4.22c0-1.66-.3-2.8-.91-3.41a4.83,4.83,0,0,0-3.41-.92H82.89a11.11,11.11,0,0,0-4.18.68,2.56,2.56,0,0,0-1.8,2.12Z"/><path class="cls-2" d="M104.33,145q-3.6,0-5.34-1.73c-1.15-1.16-1.73-2.93-1.73-5.34v-4.25c0-2.41.57-4.18,1.72-5.33s2.92-1.71,5.35-1.69h3a8.25,8.25,0,0,1,4.27.93,4.12,4.12,0,0,1,1.92,2.85,1.06,1.06,0,0,1-.25,1.05,1.46,1.46,0,0,1-1.08.37,1.16,1.16,0,0,1-.92-.32,3,3,0,0,1-.54-.92,1.57,1.57,0,0,0-1-1,7.68,7.68,0,0,0-2.37-.28h-3c-1.65,0-2.79.27-3.41.88S100,132,100,133.69v4.25c0,1.67.32,2.81.94,3.42a4.82,4.82,0,0,0,3.41.93h3a7.39,7.39,0,0,0,2.37-.28,1.53,1.53,0,0,0,1-1,2.79,2.79,0,0,1,.54-.92,1.23,1.23,0,0,1,.94-.32,1.43,1.43,0,0,1,1.06.38,1.09,1.09,0,0,1,.25,1.06,4.13,4.13,0,0,1-1.92,2.84,8.15,8.15,0,0,1-4.27.94Z"/><path class="cls-2" d="M124.66,152.41a5.17,5.17,0,0,1-3.85-1.29,5.3,5.3,0,0,1-1.27-3.89,1.36,1.36,0,0,1,2.72,0,3,3,0,0,0,.47,2,2.72,2.72,0,0,0,1.93.49h6.92a2.75,2.75,0,0,0,1.94-.49,2.91,2.91,0,0,0,.49-2V142.4a5.2,5.2,0,0,1-2.61,2.1A10.55,10.55,0,0,1,128,145h-1.55c-2.38,0-4.14-.56-5.26-1.69s-1.68-2.86-1.68-5.21V128a1.36,1.36,0,1,1,2.72,0v10.08a4.61,4.61,0,0,0,.9,3.29,4.72,4.72,0,0,0,3.32.89H128a7.84,7.84,0,0,0,4.54-1,3.61,3.61,0,0,0,1.44-3.14V128a1.36,1.36,0,1,1,2.72,0v19.2a5.3,5.3,0,0,1-1.28,3.89,5.22,5.22,0,0,1-3.87,1.29Z"/><path class="cls-2" d="M150.47,145c-2.41,0-4.18-.58-5.34-1.73s-1.73-2.93-1.73-5.34v-4.25c0-2.41.57-4.18,1.71-5.33s2.93-1.71,5.36-1.69h3a8.29,8.29,0,0,1,4.28.93,4.12,4.12,0,0,1,1.92,2.85,1.08,1.08,0,0,1-.25,1.05,1.46,1.46,0,0,1-1.08.37,1.19,1.19,0,0,1-.93-.32,3.23,3.23,0,0,1-.53-.92,1.57,1.57,0,0,0-1-1,7.76,7.76,0,0,0-2.38-.28h-3c-1.65,0-2.79.27-3.41.88s-.94,1.75-.94,3.42v4.25c0,1.67.31,2.81.94,3.42a4.82,4.82,0,0,0,3.41.93h3a7.46,7.46,0,0,0,2.38-.28,1.53,1.53,0,0,0,1-1,3,3,0,0,1,.53-.92,1.27,1.27,0,0,1,.95-.32,1.45,1.45,0,0,1,1.06.38,1.11,1.11,0,0,1,.25,1.06,4.13,4.13,0,0,1-1.92,2.84,8.19,8.19,0,0,1-4.28.94Z"/><path class="cls-2" d="M171.45,145a4.75,4.75,0,0,1-5.42-5.44V120.46a1.36,1.36,0,1,1,2.72,0v19.11a3.16,3.16,0,0,0,.54,2.16,3.1,3.1,0,0,0,2.16.56,1.21,1.21,0,0,1,1.39,1.35C172.86,144.55,172.4,145,171.45,145Z"/><path class="cls-2" d="M179.31,136.94v1a4.73,4.73,0,0,0,.93,3.38q.91.93,3.42.93h3a7.63,7.63,0,0,0,3-.44,2.1,2.1,0,0,0,1.21-1.52,2.24,2.24,0,0,1,.49-1,1.31,1.31,0,0,1,1-.33,1.4,1.4,0,0,1,1,.36,1.19,1.19,0,0,1,.24,1.05,4.7,4.7,0,0,1-2.08,3.43,9,9,0,0,1-4.86,1.12h-3c-2.41,0-4.19-.58-5.34-1.72s-1.73-2.92-1.73-5.31v-4.26q0-3.66,1.73-5.37t5.34-1.68h3c2.41,0,4.18.58,5.33,1.72s1.72,2.92,1.72,5.33v1.85a1.2,1.2,0,0,1-1.35,1.37Zm4.35-7.55c-1.67,0-2.81.28-3.42.89s-.93,1.77-.93,3.44v.5H191v-.5c0-1.66-.3-2.8-.91-3.41s-1.75-.92-3.42-.92Z"/><path class="cls-2" d="M215.48,145a6.09,6.09,0,0,1-3.65-1,4.4,4.4,0,0,1-1.64-2.93,1.16,1.16,0,0,1,.27-1.08,1.4,1.4,0,0,1,1.06-.39,1.2,1.2,0,0,1,.95.34,2.29,2.29,0,0,1,.49,1,1.49,1.49,0,0,0,.78,1,4.26,4.26,0,0,0,1.74.27h6.07a3.06,3.06,0,0,0,2.08-.53,4.35,4.35,0,0,0,0-4.2,3.07,3.07,0,0,0-2.08-.52h-6a4.57,4.57,0,0,1-5.16-5.17,5.35,5.35,0,0,1,1.27-3.91,5.23,5.23,0,0,1,3.89-1.28h5.79c2.86,0,4.52,1.22,5,3.68a1.14,1.14,0,0,1-.27,1,1.44,1.44,0,0,1-1.06.37,1.26,1.26,0,0,1-.95-.33,2.19,2.19,0,0,1-.48-.94,1.25,1.25,0,0,0-.69-.88,3.78,3.78,0,0,0-1.53-.23h-5.79a2.85,2.85,0,0,0-2,.48,2.91,2.91,0,0,0-.48,2,2,2,0,0,0,2.44,2.43h6a5.43,5.43,0,0,1,4,1.33,5.38,5.38,0,0,1-4,9.4Z"/><path class="cls-2" d="M240.88,145q-3.57,0-5.26-1.69t-1.68-5.23v-8.7H232a1.36,1.36,0,1,1,0-2.72h1.94v-3.12a1.36,1.36,0,1,1,2.72,0v3.12H241a1.36,1.36,0,0,1,0,2.72h-4.38v8.7c0,1.63.3,2.73.9,3.32a4.74,4.74,0,0,0,3.32.88,1.46,1.46,0,0,1,1,.32,1.33,1.33,0,0,1,.36,1A1.21,1.21,0,0,1,240.88,145Z"/><path class="cls-2" d="M263,126.67a1.21,1.21,0,0,1,1.37,1.36v15.61a1.36,1.36,0,1,1-2.72,0v-1c-1.27,1.56-3.26,2.35-6,2.35h-1c-2.41,0-4.18-.58-5.33-1.73s-1.72-2.93-1.72-5.34V128a1.36,1.36,0,1,1,2.72,0v9.91q0,2.51.93,3.42a4.82,4.82,0,0,0,3.4.93h1a11,11,0,0,0,4.09-.66,2.7,2.7,0,0,0,1.89-2V128A1.2,1.2,0,0,1,263,126.67Z"/><path class="cls-2" d="M278.16,145q-3.62,0-5.34-1.73c-1.16-1.16-1.73-2.93-1.73-5.34v-4.22c0-2.4.57-4.18,1.73-5.32s2.93-1.73,5.34-1.73h7.36v-6.21a1.36,1.36,0,1,1,2.72,0v23.18a1.36,1.36,0,1,1-2.72,0V143a5.37,5.37,0,0,1-2.3,1.52,10.82,10.82,0,0,1-3.66.53Zm0-2.72h1.4a10.9,10.9,0,0,0,4.27-.72,2.35,2.35,0,0,0,1.69-2.2v-10h-7.36a3.56,3.56,0,0,0-4.35,4.33v4.22q0,2.51.93,3.42A4.83,4.83,0,0,0,278.16,142.29Z"/><path class="cls-2" d="M296.19,123.53a1.42,1.42,0,0,1-1.59-1.63v-1a1.41,1.41,0,0,1,1.59-1.59h1a1.39,1.39,0,0,1,1.54,1.59v1c0,1.09-.52,1.63-1.54,1.63Zm.5,21.48a1.21,1.21,0,0,1-1.37-1.37V128a1.36,1.36,0,1,1,2.72,0v15.61A1.2,1.2,0,0,1,296.69,145Z"/><path class="cls-2" d="M311.79,145c-2.41,0-4.19-.58-5.34-1.72s-1.73-2.92-1.73-5.31v-4.26q0-3.65,1.73-5.35t5.34-1.7h3c2.41,0,4.18.58,5.33,1.73s1.72,2.92,1.72,5.32v4.22c0,2.41-.57,4.18-1.72,5.34s-2.92,1.73-5.33,1.73Zm-4.35-7a4.73,4.73,0,0,0,.93,3.38q.92.93,3.42.93h3c1.67,0,2.8-.31,3.42-.93s.91-1.75.91-3.42v-4.22c0-1.66-.3-2.8-.91-3.41a4.86,4.86,0,0,0-3.42-.92h-3a7,7,0,0,0-2.61.39,2.4,2.4,0,0,0-1.34,1.33,6.81,6.81,0,0,0-.4,2.61Z"/><circle class="cls-3" cx="344.5" cy="135.5" r="12"/><circle class="cls-3" cx="341" cy="132" r="1"/><circle class="cls-3" cx="348" cy="132" r="1"/><circle class="cls-3" cx="341" cy="139" r="1"/><circle class="cls-3" cx="348" cy="139" r="1"/></svg>