<svg xmlns="http://www.w3.org/2000/svg" viewBox="0 0 420 270"><defs><style>.cls-1{fill:#eb4733;}.cls-2,.cls-3,.cls-9{fill:#fff;}.cls-3{font-size:51px;font-family:Pacifico-Regular, Pacifico;}.cls-4{letter-spacing:0.08em;}.cls-5{letter-spacing:0.01em;}.cls-6{letter-spacing:0.08em;}.cls-7{letter-spacing:-0.02em;}.cls-8{fill:#23443e;}.cls-9{font-size:48px;font-family:BlackHanSans-Regular, Black Han Sans;}.cls-10{fill:#f6c744;}.cls-11{fill:none;stroke:#fff;stroke-miterlimit:10;stroke-width:2px;}</style></defs><g id="Layer_1" data-name="Layer 1"><rect class="cls-1" x="-3.5" y="-84.5" width="426" height="426"/><path class="cls-2" d="M422-84V341H-3V-84H422m1-1H-4V342H423V-85Z"/><text class="cls-3" transform="translate(72.68 134.67)"><tspan class="cls-4">L</tspan><tspan class="cls-5" x="38.4" y="0">o</tspan><tspan x="61.91" y="0">ve </tspan><tspan class="cls-6" x="119.29" y="0">L</tspan><tspan x="157.69" y="0">ette</tspan><tspan class="cls-7" x="233.78" y="0">r</tspan><tspan x="257.75" y="0">s</tspan></text><path class="cls-2" d="M139.63,162.93v-6.71h1.09v6.71Zm.75-3a7.39,7.39,0,0,1,.25-2.11,2.54,2.54,0,0,1,.71-1.26,1.69,1.69,0,0,1,1.16-.42,2.5,2.5,0,0,1,.4,0,2.62,2.62,0,0,1,.38.09l-.07,1.08a3.83,3.83,0,0,0-.43-.11,2.1,2.1,0,0,0-.41,0,1.33,1.33,0,0,0-1,.34,1.94,1.94,0,0,0-.53.95,5.69,5.69,0,0,0-.16,1.45Z"/><path class="cls-2" d="M146.55,163.09a2.81,2.81,0,0,1-1.37-.29,2,2,0,0,1-.8-.76,1.94,1.94,0,0,1-.27-1,1.79,1.79,0,0,1,.34-1.11,2,2,0,0,1,.93-.62,4.16,4.16,0,0,1,1.32-.2,5.51,5.51,0,0,1,1.06.1,7.52,7.52,0,0,1,1,.29v.69a4.84,4.84,0,0,0-.95-.27,5.92,5.92,0,0,0-1-.1,2.08,2.08,0,0,0-1.13.28,1,1,0,0,0-.47.94,1.12,1.12,0,0,0,.36.84,1.56,1.56,0,0,0,1.13.35,1.91,1.91,0,0,0,1-.25,2.19,2.19,0,0,0,.7-.65,1.35,1.35,0,0,0,.25-.76H149a2.76,2.76,0,0,1-.29,1.24,2.48,2.48,0,0,1-.83.93A2.34,2.34,0,0,1,146.55,163.09Zm2.28-.16-.14-1.47v-2.87a1.84,1.84,0,0,0-.38-1.3,1.54,1.54,0,0,0-1.16-.4,2.22,2.22,0,0,0-.79.13,1.19,1.19,0,0,0-.56.39,1.09,1.09,0,0,0-.2.67h-1.22a1.82,1.82,0,0,1,.36-1.17,1.9,1.9,0,0,1,1-.64,4.49,4.49,0,0,1,1.43-.2,3.32,3.32,0,0,1,1.37.26,2,2,0,0,1,.93.82,2.86,2.86,0,0,1,.33,1.47v4.31Z"/><path class="cls-2" d="M152.39,162.93v-6.7h.94l.16,1.54v5.16Zm4.76,0V159a2.08,2.08,0,0,0-.46-1.46,1.6,1.6,0,0,0-1.24-.5,1.71,1.71,0,0,0-1,.33,2.11,2.11,0,0,0-.68.94,4,4,0,0,0-.23,1.46h-.42a5.83,5.83,0,0,1,.3-2,2.82,2.82,0,0,1,.9-1.27,2.38,2.38,0,0,1,1.44-.43,2.48,2.48,0,0,1,1.36.35,2.31,2.31,0,0,1,.86,1,3.74,3.74,0,0,1,.3,1.56v3.94Z"/><path class="cls-2" d="M163.24,163.09a2.67,2.67,0,0,1-1.49-.43,3,3,0,0,1-1.09-1.24,4,4,0,0,1-.41-1.87,4.1,4.1,0,0,1,.4-1.85,3,3,0,0,1,1.06-1.21,2.67,2.67,0,0,1,1.46-.42,2.4,2.4,0,0,1,1.29.35,2.31,2.31,0,0,1,.86,1,3.82,3.82,0,0,1,.31,1.63h-.42A2.24,2.24,0,0,0,165,158a1.74,1.74,0,0,0-.68-.69,1.82,1.82,0,0,0-.91-.24,1.74,1.74,0,0,0-1,.31,2.09,2.09,0,0,0-.72.87,3,3,0,0,0-.27,1.34,3.19,3.19,0,0,0,.27,1.37,2.15,2.15,0,0,0,.72.89,1.81,1.81,0,0,0,1,.31,1.74,1.74,0,0,0,.88-.24,1.88,1.88,0,0,0,.7-.7,2.15,2.15,0,0,0,.27-1.11h.42a3.88,3.88,0,0,1-.32,1.65,2.45,2.45,0,0,1-.86,1A2.21,2.21,0,0,1,163.24,163.09Zm2.15-.16-.18-1.57v-8h1.09v9.55Z"/><path class="cls-2" d="M171.56,163.09a3.28,3.28,0,0,1-1.61-.39,2.79,2.79,0,0,1-1.11-1.19,4.86,4.86,0,0,1,0-3.86,2.71,2.71,0,0,1,1.11-1.18,3.18,3.18,0,0,1,1.61-.4,3.14,3.14,0,0,1,1.6.4,2.63,2.63,0,0,1,1.1,1.18,4.75,4.75,0,0,1,0,3.86,2.71,2.71,0,0,1-1.1,1.19A3.24,3.24,0,0,1,171.56,163.09Zm0-1a1.91,1.91,0,0,0,1.11-.31,2,2,0,0,0,.69-.88,3.78,3.78,0,0,0,.23-1.37,3.12,3.12,0,0,0-.5-1.89,1.69,1.69,0,0,0-1.47-.69,1.84,1.84,0,0,0-1.8,1.21,3.74,3.74,0,0,0-.23,1.37,3.07,3.07,0,0,0,.5,1.87A1.69,1.69,0,0,0,171.53,162.14Z"/><path class="cls-2" d="M176.79,162.93v-6.7h.94l.12,1.35a2.52,2.52,0,0,1,.89-1.12,2.35,2.35,0,0,1,1.37-.39,2.47,2.47,0,0,1,1.35.35,2.33,2.33,0,0,1,.87,1,3.74,3.74,0,0,1,.3,1.56v3.94h-1.08V159a2.08,2.08,0,0,0-.46-1.46,1.63,1.63,0,0,0-1.25-.5,1.68,1.68,0,0,0-1,.33,2,2,0,0,0-.68.94,4,4,0,0,0-.24,1.46v3.17Zm9.41,0V159a2.13,2.13,0,0,0-.46-1.46,1.62,1.62,0,0,0-1.24-.5,1.59,1.59,0,0,0-1.39.71,3.39,3.39,0,0,0-.48,1.94h-.51a6.19,6.19,0,0,1,.18-1.58,3.11,3.11,0,0,1,.52-1.13,2.25,2.25,0,0,1,.83-.68,2.67,2.67,0,0,1,1.12-.22,2.42,2.42,0,0,1,1.35.35,2.27,2.27,0,0,1,.87,1,3.74,3.74,0,0,1,.3,1.56v3.94Z"/><path class="cls-2" d="M193.21,166.22v-10h.91l.18,1.57v8.42Zm3-3.13a2.41,2.41,0,0,1-1.28-.33,2.2,2.2,0,0,1-.84-1,4,4,0,0,1-.29-1.58h.46a2,2,0,0,0,.26,1.05,1.67,1.67,0,0,0,.68.64,1.81,1.81,0,0,0,.88.23,1.76,1.76,0,0,0,1-.3,2.09,2.09,0,0,0,.75-.85,3,3,0,0,0,.3-1.4,3.19,3.19,0,0,0-.27-1.37,2,2,0,0,0-.73-.87,1.78,1.78,0,0,0-1-.3,1.88,1.88,0,0,0-.9.23,1.78,1.78,0,0,0-.68.68,2.18,2.18,0,0,0-.26,1.1h-.46a3.8,3.8,0,0,1,.32-1.64,2.4,2.4,0,0,1,.88-1,2.35,2.35,0,0,1,1.24-.33,2.72,2.72,0,0,1,1.46.42,3.12,3.12,0,0,1,1.1,1.2,3.92,3.92,0,0,1,.42,1.88,3.85,3.85,0,0,1-.43,1.89,3,3,0,0,1-1.11,1.21A2.67,2.67,0,0,1,196.25,163.09Z"/><path class="cls-2" d="M203.81,163.09a3.24,3.24,0,0,1-1.6-.39,2.79,2.79,0,0,1-1.11-1.19,4.75,4.75,0,0,1,0-3.86,2.71,2.71,0,0,1,1.11-1.18,3.4,3.4,0,0,1,3.2,0,2.71,2.71,0,0,1,1.11,1.18,4.86,4.86,0,0,1,0,3.86,2.79,2.79,0,0,1-1.11,1.19A3.24,3.24,0,0,1,203.81,163.09Zm0-1a1.87,1.87,0,0,0,1.1-.31,1.85,1.85,0,0,0,.69-.88,3.57,3.57,0,0,0,.24-1.37,3.19,3.19,0,0,0-.5-1.89,1.7,1.7,0,0,0-1.48-.69,1.89,1.89,0,0,0-1.11.32,1.82,1.82,0,0,0-.68.89,3.53,3.53,0,0,0-.24,1.37,3.14,3.14,0,0,0,.5,1.87A1.72,1.72,0,0,0,203.79,162.14Z"/><path class="cls-2" d="M211.37,163.09a2.73,2.73,0,0,1-1.55-.44,3.08,3.08,0,0,1-1.08-1.23,4,4,0,0,1-.4-1.83,4.18,4.18,0,0,1,.39-1.88,2.93,2.93,0,0,1,1.08-1.22,2.89,2.89,0,0,1,1.56-.42,2.53,2.53,0,0,1,1.3.31,2.39,2.39,0,0,1,.87.83,3.5,3.5,0,0,1,.46,1.18,5.19,5.19,0,0,1,.07,1.37h-4.84v-.67h4.12l-.32.21a3.9,3.9,0,0,0-.05-.83,2.52,2.52,0,0,0-.25-.76,1.42,1.42,0,0,0-.51-.55,1.54,1.54,0,0,0-.84-.21,1.74,1.74,0,0,0-1.08.33,2.07,2.07,0,0,0-.65.86,3.19,3.19,0,0,0-.21,1.16v.45a3.49,3.49,0,0,0,.21,1.25,1.92,1.92,0,0,0,.64.88,2,2,0,0,0,2.15,0A1.35,1.35,0,0,0,213,161h1.13a2.53,2.53,0,0,1-.47,1.15,2.58,2.58,0,0,1-1,.74A3.13,3.13,0,0,1,211.37,163.09Z"/><path class="cls-2" d="M216.23,162.93v-6.7h.94l.13,1.35a2.5,2.5,0,0,1,.88-1.12,2.37,2.37,0,0,1,1.37-.39,2.42,2.42,0,0,1,1.35.35,2.27,2.27,0,0,1,.87,1,3.74,3.74,0,0,1,.3,1.56v3.94H221V159a2.08,2.08,0,0,0-.46-1.46,1.61,1.61,0,0,0-1.25-.5,1.7,1.7,0,0,0-1,.33,2.11,2.11,0,0,0-.68.94,4,4,0,0,0-.24,1.46v3.17Zm9.41,0V159a2.08,2.08,0,0,0-.46-1.46,1.75,1.75,0,0,0-2.63.21,3.39,3.39,0,0,0-.48,1.94h-.5a6.71,6.71,0,0,1,.17-1.58,3.12,3.12,0,0,1,.53-1.13,2.17,2.17,0,0,1,.83-.68,2.65,2.65,0,0,1,1.11-.22,2.48,2.48,0,0,1,1.36.35,2.31,2.31,0,0,1,.86,1,3.74,3.74,0,0,1,.3,1.56v3.94Z"/><path class="cls-2" d="M235,166.37a5.09,5.09,0,0,1-1.79-.29,2.8,2.8,0,0,1-1.17-.78,1.58,1.58,0,0,1-.41-1.07,1.38,1.38,0,0,1,.57-1.19,2.48,2.48,0,0,1,1.47-.41l.6.38a1.91,1.91,0,0,0-1.17.32,1,1,0,0,0-.41.86,1.09,1.09,0,0,0,.59.92,3.2,3.2,0,0,0,1.72.38,4.12,4.12,0,0,0,1.47-.24,2.49,2.49,0,0,0,1-.63,1.21,1.21,0,0,0,.35-.84.7.7,0,0,0-.23-.54,1,1,0,0,0-.7-.23h-2.61a3,3,0,0,1-1.17-.21,1.75,1.75,0,0,1-.76-.54,1.14,1.14,0,0,1-.27-.73,1.12,1.12,0,0,1,.24-.72,1.56,1.56,0,0,1,.62-.44,2.07,2.07,0,0,1,.82-.16l.21.41a1.06,1.06,0,0,0-.42.09,1,1,0,0,0-.36.28.79.79,0,0,0-.14.47.68.68,0,0,0,.27.54,1.6,1.6,0,0,0,1,.21h2.61a2.48,2.48,0,0,1,1.48.4,1.32,1.32,0,0,1,.55,1.11,2.08,2.08,0,0,1-.47,1.27,3.47,3.47,0,0,1-1.35,1A5.1,5.1,0,0,1,235,166.37Zm.2-5.4a3.12,3.12,0,0,1-1.39-.31,2.42,2.42,0,0,1-1-.86,2.47,2.47,0,0,1,0-2.57,2.34,2.34,0,0,1,1-.86,3.12,3.12,0,0,1,1.39-.3,3.08,3.08,0,0,1,1.36.3,2.38,2.38,0,0,1,1,.86,2.42,2.42,0,0,1,0,2.57,2.45,2.45,0,0,1-1,.86A3.09,3.09,0,0,1,235.22,161Zm0-.79a1.53,1.53,0,0,0,1.19-.47,1.71,1.71,0,0,0,.43-1.19,1.68,1.68,0,0,0-.43-1.2,1.55,1.55,0,0,0-1.19-.45,1.63,1.63,0,0,0-1.21.45,1.68,1.68,0,0,0-.43,1.2,1.71,1.71,0,0,0,.43,1.19A1.6,1.6,0,0,0,235.22,160.18Zm2.19-3.05-.51-.21a2.12,2.12,0,0,1,.23-1,1.61,1.61,0,0,1,.65-.69,2,2,0,0,1,1-.25l-.08,1.07a1.51,1.51,0,0,0-1,.27A1,1,0,0,0,237.41,157.13Z"/><path class="cls-2" d="M242.88,163.09a2.75,2.75,0,0,1-1.55-.44,3.24,3.24,0,0,1-1.08-1.23,4.1,4.1,0,0,1-.39-1.83,4.18,4.18,0,0,1,.39-1.88,2.91,2.91,0,0,1,1.07-1.22,2.94,2.94,0,0,1,1.56-.42,2.53,2.53,0,0,1,1.3.31,2.39,2.39,0,0,1,.87.83,3.5,3.5,0,0,1,.46,1.18,5.19,5.19,0,0,1,.07,1.37h-4.84v-.67h4.12l-.32.21a3.9,3.9,0,0,0,0-.83,2.5,2.5,0,0,0-.24-.76,1.45,1.45,0,0,0-1.36-.76,1.71,1.71,0,0,0-1.07.33,2,2,0,0,0-.65.86,3,3,0,0,0-.22,1.16v.45a3.49,3.49,0,0,0,.21,1.25,2,2,0,0,0,.64.88,1.8,1.8,0,0,0,1.08.32,1.74,1.74,0,0,0,1.07-.32,1.35,1.35,0,0,0,.51-.93h1.14a2.43,2.43,0,0,1-.48,1.15,2.54,2.54,0,0,1-.94.74A3.21,3.21,0,0,1,242.88,163.09Z"/><path class="cls-2" d="M247.75,162.93v-6.7h.93l.16,1.54v5.16Zm4.75,0V159a2.13,2.13,0,0,0-.45-1.46,1.64,1.64,0,0,0-1.25-.5,1.73,1.73,0,0,0-1.05.33,2,2,0,0,0-.67.94,4,4,0,0,0-.24,1.46h-.42a5.58,5.58,0,0,1,.31-2,2.73,2.73,0,0,1,.89-1.27,2.38,2.38,0,0,1,1.44-.43,2.48,2.48,0,0,1,1.36.35,2.31,2.31,0,0,1,.86,1,3.74,3.74,0,0,1,.3,1.56v3.94Z"/><path class="cls-2" d="M258.52,163.09a2.73,2.73,0,0,1-1.55-.44,3.08,3.08,0,0,1-1.08-1.23,4.11,4.11,0,0,1-.4-1.83,4,4,0,0,1,.4-1.88,2.79,2.79,0,0,1,2.63-1.64,2.53,2.53,0,0,1,1.3.31,2.39,2.39,0,0,1,.87.83,3.5,3.5,0,0,1,.46,1.18,5.19,5.19,0,0,1,.07,1.37h-4.84v-.67h4.12l-.32.21a3.9,3.9,0,0,0-.05-.83,2.52,2.52,0,0,0-.25-.76,1.42,1.42,0,0,0-.51-.55,1.54,1.54,0,0,0-.84-.21,1.74,1.74,0,0,0-1.08.33,2.16,2.16,0,0,0-.65.86,3.19,3.19,0,0,0-.21,1.16v.45a3.49,3.49,0,0,0,.21,1.25,2,2,0,0,0,.64.88,2,2,0,0,0,2.15,0,1.35,1.35,0,0,0,.51-.93h1.13a2.53,2.53,0,0,1-.47,1.15,2.5,2.5,0,0,1-.95.74A3.13,3.13,0,0,1,258.52,163.09Z"/><path class="cls-2" d="M263.38,162.93v-6.71h1.09v6.71Zm.76-3a7.8,7.8,0,0,1,.24-2.11,2.62,2.62,0,0,1,.72-1.26,1.68,1.68,0,0,1,1.15-.42,2.54,2.54,0,0,1,.41,0,2.62,2.62,0,0,1,.38.09l-.07,1.08-.43-.11a2.1,2.1,0,0,0-.41,0,1.33,1.33,0,0,0-1,.34,1.87,1.87,0,0,0-.53.95,5.66,5.66,0,0,0-.17,1.45Z"/><path class="cls-2" d="M270.31,163.09a2.78,2.78,0,0,1-1.37-.29,2,2,0,0,1-.8-.76,1.94,1.94,0,0,1-.27-1,1.73,1.73,0,0,1,.34-1.11,2,2,0,0,1,.93-.62,4.16,4.16,0,0,1,1.32-.2,5.33,5.33,0,0,1,1.05.1,7.27,7.27,0,0,1,1,.29v.69a4.84,4.84,0,0,0-.95-.27,5.92,5.92,0,0,0-1-.1,2.14,2.14,0,0,0-1.14.28,1,1,0,0,0-.46.94,1.12,1.12,0,0,0,.36.84,1.56,1.56,0,0,0,1.13.35,1.91,1.91,0,0,0,1-.25,2.05,2.05,0,0,0,.69-.65,1.36,1.36,0,0,0,.26-.76h.26a2.63,2.63,0,0,1-.29,1.24,2.39,2.39,0,0,1-.83.93A2.31,2.31,0,0,1,270.31,163.09Zm2.28-.16-.14-1.47v-2.87a1.79,1.79,0,0,0-.39-1.3,1.5,1.5,0,0,0-1.15-.4,2.22,2.22,0,0,0-.79.13,1.14,1.14,0,0,0-.56.39,1,1,0,0,0-.21.67h-1.21a1.81,1.81,0,0,1,.35-1.17,2,2,0,0,1,1-.64,4.45,4.45,0,0,1,1.43-.2,3.24,3.24,0,0,1,1.36.26,1.9,1.9,0,0,1,.93.82,2.76,2.76,0,0,1,.34,1.47v4.31Z"/><path class="cls-2" d="M275.21,157v-.76h4.27V157Zm3,6.1a2.21,2.21,0,0,1-1-.21,1.5,1.5,0,0,1-.69-.63,2.08,2.08,0,0,1-.25-1v-6.84h1.08v6.81c0,.69.32,1,1,1a2.53,2.53,0,0,0,.56-.06,5.81,5.81,0,0,0,.61-.19l.15.79a6.68,6.68,0,0,1-.71.25A2.92,2.92,0,0,1,278.21,163.09Z"/><path class="cls-2" d="M283.84,163.09a3.25,3.25,0,0,1-1.61-.39,2.79,2.79,0,0,1-1.11-1.19,4.75,4.75,0,0,1,0-3.86,2.71,2.71,0,0,1,1.11-1.18,3.42,3.42,0,0,1,3.21,0,2.69,2.69,0,0,1,1.1,1.18,4.86,4.86,0,0,1,0,3.86,2.77,2.77,0,0,1-1.1,1.19A3.27,3.27,0,0,1,283.84,163.09Zm0-1a1.93,1.93,0,0,0,1.11-.31,1.89,1.89,0,0,0,.68-.88,3.57,3.57,0,0,0,.24-1.37,3.19,3.19,0,0,0-.5-1.89,1.7,1.7,0,0,0-1.48-.69,1.93,1.93,0,0,0-1.11.32,1.88,1.88,0,0,0-.68.89,3.53,3.53,0,0,0-.24,1.37,3.14,3.14,0,0,0,.5,1.87A1.72,1.72,0,0,0,283.81,162.14Z"/><path class="cls-2" d="M289.07,162.93v-6.71h1.09v6.71Zm.75-3a7.39,7.39,0,0,1,.25-2.11,2.54,2.54,0,0,1,.71-1.26,1.69,1.69,0,0,1,1.16-.42,2.5,2.5,0,0,1,.4,0,2.62,2.62,0,0,1,.38.09l-.07,1.08a3.83,3.83,0,0,0-.43-.11,2.1,2.1,0,0,0-.41,0,1.33,1.33,0,0,0-1,.34,1.94,1.94,0,0,0-.53.95,5.69,5.69,0,0,0-.16,1.45Z"/></g><g id="Layer_2" data-name="Layer 2"><rect class="cls-8" x="-6" y="-81" width="429" height="423"/><text class="cls-9" transform="translate(58 147.78)">h20 tracker</text></g><g id="Layer_3" data-name="Layer 3"><rect class="cls-10" x="-6" y="-64" width="429" height="423"/><path class="cls-2" d="M65.39,126.67A1.21,1.21,0,0,1,66.76,128v15.61a1.36,1.36,0,1,1-2.72,0v-1c-1.27,1.56-3.26,2.35-6,2.35H57c-2.41,0-4.18-.58-5.33-1.73S50,140.35,50,137.94V128a1.36,1.36,0,1,1,2.72,0v9.91q0,2.51.93,3.42a4.82,4.82,0,0,0,3.4.93h1a11.05,11.05,0,0,0,4.09-.66,2.7,2.7,0,0,0,1.89-2V128A1.2,1.2,0,0,1,65.39,126.67Z"/><path class="cls-2" d="M75.56,152.41A1.21,1.21,0,0,1,74.19,151V128a1.36,1.36,0,1,1,2.72,0v.87a5.7,5.7,0,0,1,2.45-1.67,10.13,10.13,0,0,1,3.53-.56H84.3c2.4,0,4.18.58,5.32,1.73s1.72,2.92,1.72,5.32v4.22c0,2.41-.57,4.18-1.72,5.34S86.7,145,84.3,145H76.91v6A1.2,1.2,0,0,1,75.56,152.41Zm1.35-10.12H84.3c1.66,0,2.8-.31,3.41-.93s.91-1.75.91-3.42v-4.22c0-1.66-.3-2.8-.91-3.41a4.83,4.83,0,0,0-3.41-.92H82.89a11.11,11.11,0,0,0-4.18.68,2.56,2.56,0,0,0-1.8,2.12Z"/><path class="cls-2" d="M104.33,145q-3.6,0-5.34-1.73c-1.15-1.16-1.73-2.93-1.73-5.34v-4.25c0-2.41.57-4.18,1.72-5.33s2.92-1.71,5.35-1.69h3a8.25,8.25,0,0,1,4.27.93,4.12,4.12,0,0,1,1.92,2.85,1.06,1.06,0,0,1-.25,1.05,1.46,1.46,0,0,1-1.08.37,1.16,1.16,0,0,1-.92-.32,3,3,0,0,1-.54-.92,1.57,1.57,0,0,0-1-1,7.68,7.68,0,0,0-2.37-.28h-3c-1.65,0-2.79.27-3.41.88S100,132,100,133.69v4.25c0,1.67.32,2.81.94,3.42a4.82,4.82,0,0,0,3.41.93h3a7.39,7.39,0,0,0,2.37-.28,1.53,1.53,0,0,0,1-1,2.79,2.79,0,0,1,.54-.92,1.23,1.23,0,0,1,.94-.32,1.43,1.43,0,0,1,1.06.38,1.09,1.09,0,0,1,.25,1.06,4.13,4.13,0,0,1-1.92,2.84,8.15,8.15,0,0,1-4.27.94Z"/><path class="cls-2" d="M124.66,152.41a5.17,5.17,0,0,1-3.85-1.29,5.3,5.3,0,0,1-1.27-3.89,1.36,1.36,0,0,1,2.72,0,3,3,0,0,0,.47,2,2.72,2.72,0,0,0,1.93.49h6.92a2.75,2.75,0,0,0,1.94-.49,2.91,2.91,0,0,0,.49-2V142.4a5.2,5.2,0,0,1-2.61,2.1A10.55,10.55,0,0,1,128,145h-1.55c-2.38,0-4.14-.56-5.26-1.69s-1.68-2.86-1.68-5.21V128a1.36,1.36,0,1,1,2.72,0v10.08a4.61,4.61,0,0,0,.9,3.29,4.72,4.72,0,0,0,3.32.89H128a7.84,7.84,0,0,0,4.54-1,3.61,3.61,0,0,0,1.44-3.14V128a1.36,1.36,0,1,1,2.72,0v19.2a5.3,5.3,0,0,1-1.28,3.89,5.22,5.22,0,0,1-3.87,1.29Z"/><path class="cls-2" d="M150.47,145c-2.41,0-4.18-.58-5.34-1.73s-1.73-2.93-1.73-5.34v-4.25c0-2.41.57-4.18,1.71-5.33s2.93-1.71,5.36-1.69h3a8.29,8.29,0,0,1,4.28.93,4.12,4.12,0,0,1,1.92,2.85,1.08,1.08,0,0,1-.25,1.05,1.46,1.46,0,0,1-1.08.37,1.19,1.19,0,0,1-.93-.32,3.23,3.23,0,0,1-.53-.92,1.57,1.57,0,0,0-1-1,7.76,7.76,0,0,0-2.38-.28h-3c-1.65,0-2.79.27-3.41.88s-.94,1.75-.94,3.42v4.25c0,1.67.31,2.81.94,3.42a4.82,4.82,0,0,0,3.41.93h3a7.46,7.46,0,0,0,2.38-.28,1.53,1.53,0,0,0,1-1,3,3,0,0,1,.53-.92,1.27,1.27,0,0,1,.95-.32,1.45,1.45,0,0,1,1.06.38,1.11,1.11,0,0,1,.25,1.06,4.13,4.13,0,0,1-1.92,2.84,8.19,8.19,0,0,1-4.28.94Z"/><path class="cls-2" d="M171.45,145a4.75,4.75,0,0,1-5.42-5.44V120.46a1.36,1.36,0,1,1,2.72,0v19.11a3.16,3.16,0,0,0,.54,2.16,3.1,3.1,0,0,0,2.16.56,1.21,1.21,0,0,1,1.39,1.35C172.86,144.55,172.4,145,171.45,145Z"/><path class="cls-2" d="M179.31,136.94v1a4.73,4.73,0,0,0,.93,3.38q.91.93,3.42.93h3a7.63,7.63,0,0,0,3-.44,2.1,2.1,0,0,0,1.21-1.52,2.24,2.24,0,0,1,.49-1,1.31,1.31,0,0,1,1-.33,1.4,1.4,0,0,1,1,.36,1.19,1.19,0,0,1,.24,1.05,4.7,4.7,0,0,1-2.08,3.43,9,9,0,0,1-4.86,1.12h-3c-2.41,0-4.19-.58-5.34-1.72s-1.73-2.92-1.73-5.31v-4.26q0-3.66,1.73-5.37t5.34-1.68h3c2.41,0,4.18.58,5.33,1.72s1.72,2.92,1.72,5.33v1.85a1.2,1.2,0,0,1-1.35,1.37Zm4.35-7.55c-1.67,0-2.81.28-3.42.89s-.93,1.77-.93,3.44v.5H191v-.5c0-1.66-.3-2.8-.91-3.41s-1.75-.92-3.42-.92Z"/><path class="cls-2" d="M215.48,145a6.09,6.09,0,0,1-3.65-1,4.4,4.4,0,0,1-1.64-2.93,1.16,1.16,0,0,1,.27-1.08,1.4,1.4,0,0,1,1.06-.39,1.2,1.2,0,0,1,.95.34,2.29,2.29,0,0,1,.49,1,1.49,1.49,0,0,0,.78,1,4.26,4.26,0,0,0,1.74.27h6.07a3.06,3.06,0,0,0,2.08-.53,4.35,4.35,0,0,0,0-4.2,3.07,3.07,0,0,0-2.08-.52h-6a4.57,4.57,0,0,1-5.16-5.17,5.35,5.35,0,0,1,1.27-3.91,5.23,5.23,0,0,1,3.89-1.28h5.79c2.86,0,4.52,1.22,5,3.68a1.14,1.14,0,0,1-.27,1,1.44,1.44,0,0,1-1.06.37,1.26,1.26,0,0,1-.95-.33,2.19,2.19,0,0,1-.48-.94,1.25,1.25,0,0,0-.69-.88,3.78,3.78,0,0,0-1.53-.23h-5.79a2.85,2.85,0,0,0-2,.48,2.91,2.91,0,0,0-.48,2,2,2,0,0,0,2.44,2.43h6a5.43,5.43,0,0,1,4,1.33,5.38,5.38,0,0,1-4,9.4Z"/><path class="cls-2" d="M240.88,145q-3.57,0-5.26-1.69t-1.68-5.23v-8.7H232a1.36,1.36,0,1,1,0-2.72h1.94v-3.12a1.36,1.36,0,1,1,2.72,0v3.12H241a1.36,1.36,0,0,1,0,2.72h-4.38v8.7c0,1.63.3,2.73.9,3.32a4.74,4.74,0,0,0,3.32.88,1.46,1.46,0,0,1,1,.32,1.33,1.33,0,0,1,.36,1A1.21,1.21,0,0,1,240.88,145Z"/><path class="cls-2" d="M263,126.67a1.21,1.21,0,0,1,1.37,1.36v15.61a1.36,1.36,0,1,1-2.72,0v-1c-1.27,1.56-3.26,2.35-6,2.35h-1c-2.41,0-4.18-.58-5.33-1.73s-1.72-2.93-1.72-5.34V128a1.36,1.36,0,1,1,2.72,0v9.91q0,2.51.93,3.42a4.82,4.82,0,0,0,3.4.93h1a11,11,0,0,0,4.09-.66,2.7,2.7,0,0,0,1.89-2V128A1.2,1.2,0,0,1,263,126.67Z"/><path class="cls-2" d="M278.16,145q-3.62,0-5.34-1.73c-1.16-1.16-1.73-2.93-1.73-5.34v-4.22c0-2.4.57-4.18,1.73-5.32s2.93-1.73,5.34-1.73h7.36v-6.21a1.36,1.36,0,1,1,2.72,0v23.18a1.36,1.36,0,1,1-2.72,0V143a5.37,5.37,0,0,1-2.3,1.52,10.82,10.82,0,0,1-3.66.53Zm0-2.72h1.4a10.9,10.9,0,0,0,4.27-.72,2.35,2.35,0,0,0,1.69-2.2v-10h-7.36a3.56,3.56,0,0,0-4.35,4.33v4.22q0,2.51.93,3.42A4.83,4.83,0,0,0,278.16,142.29Z"/><path class="cls-2" d="M296.19,123.53a1.42,1.42,0,0,1-1.59-1.63v-1a1.41,1.41,0,0,1,1.59-1.59h1a1.39,1.39,0,0,1,1.54,1.59v1c0,1.09-.52,1.63-1.54,1.63Zm.5,21.48a1.21,1.21,0,0,1-1.37-1.37V128a1.36,1.36,0,1,1,2.72,0v15.61A1.2,1.2,0,0,1,296.69,145Z"/><path class="cls-2" d="M311.79,145c-2.41,0-4.19-.58-5.34-1.72s-1.73-2.92-1.73-5.31v-4.26q0-3.65,1.73-5.35t5.34-1.7h3c2.41,0,4.18.58,5.33,1.73s1.72,2.92,1.72,5.32v4.22c0,2.41-.57,4.18-1.72,5.34s-2.92,1.73-5.33,1.73Zm-4.35-7a4.73,4.73,0,0,0,.93,3.38q.92.93,3.42.93h3c1.67,0,2.8-.31,3.42-.93s.91-1.75.91-3.42v-4.22c0-1.66-.3-2.8-.91-3.41a4.86,4.86,0,0,0-3.42-.92h-3a7,7,0,0,0-2.61.39,2.4,2.4,0,0,0-1.34,1.33,6.81,6.81,0,0,0-.4,2.61Z"/><circle class="cls-11" cx="344.5" cy="135.5" r="12"/><circle class="cls-11" cx="341" cy="132" r="1"/><circle class="cls-11" cx="348" cy="132" r="1"/><circle class="cls-11" cx="341" cy="139" r="1"/><circle class="cls-11" cx="348" cy="139" r="1"/></g></svg>